<?xml version="1.0" encoding="UTF-8" standalone="no"?>
<!-- Generator: Adobe Illustrator 15.1.0, SVG Export Plug-In . SVG Version: 6.00 Build 0)  -->

<svg
   xmlns:dc="http://purl.org/dc/elements/1.1/"
   xmlns:cc="http://creativecommons.org/ns#"
   xmlns:rdf="http://www.w3.org/1999/02/22-rdf-syntax-ns#"
   xmlns:svg="http://www.w3.org/2000/svg"
   xmlns="http://www.w3.org/2000/svg"
   xmlns:sodipodi="http://sodipodi.sourceforge.net/DTD/sodipodi-0.dtd"
   xmlns:inkscape="http://www.inkscape.org/namespaces/inkscape"
   version="1.1"
   x="0px"
   y="0px"
   width="2042.8441"
   height="227.50586"
   viewBox="0 0 2042.8441 227.50586"
   xml:space="preserve"
   id="svg2"
   inkscape:version="0.48.2 r9819"
   sodipodi:docname="StuTS web 2.svg"><metadata
   id="metadata104"><rdf:RDF><cc:Work
       rdf:about=""><dc:format>image/svg+xml</dc:format><dc:type
         rdf:resource="http://purl.org/dc/dcmitype/StillImage" /></cc:Work></rdf:RDF></metadata><defs
   id="defs102" /><sodipodi:namedview
   pagecolor="#ffffff"
   bordercolor="#666666"
   borderopacity="1"
   objecttolerance="10"
   gridtolerance="10"
   guidetolerance="10"
   inkscape:pageopacity="0"
   inkscape:pageshadow="2"
   inkscape:window-width="1366"
   inkscape:window-height="706"
   id="namedview100"
   showgrid="false"
   fit-margin-top="0"
   fit-margin-left="0"
   fit-margin-right="0"
   fit-margin-bottom="0"
   inkscape:zoom="0.4317878"
   inkscape:cx="721.34214"
   inkscape:cy="-30.63374"
   inkscape:window-x="-8"
   inkscape:window-y="-8"
   inkscape:window-maximized="1"
   inkscape:current-layer="svg2" />
<g
   id="g5"
   style="opacity:0.38999999"
   transform="translate(0,0.47753995)">
		<path
   inkscape:connector-curvature="0"
   id="path7"
   d="M 0,0 H 34.388672 V 4.7705078 C 12.463379,6.3793945 10.877441,8.7504883 10.877441,22.609863 V 204.38965 c 0,13.88769 1.444336,16.25879 23.511231,18.00879 v 4.62988 H 0 V 0 l 0,0 z m 32.773926,225.44727 v -1.58106 C 11.896973,222.08789 9.2626953,218.61621 9.2626953,204.38965 V 22.609863 c 0,-14.1416013 2.5776367,-17.6699216 23.5112307,-19.3071286 V 1.5810547 H 1.5859375 V 225.44727 H 32.773926 l 0,0 z"
   style="fill:#010202" />
		<path
   inkscape:connector-curvature="0"
   id="path9"
   d="m 49.741699,177.49023 c 0.963379,2.3711 1.784668,4.77051 5.438965,4.77051 3.540527,0 8.80957,-4.29101 8.80957,-28.19922 V 84.595703 c 0,-16.399902 0.481446,-28.988769 10.056153,-36.638184 4.333984,-3.358886 8.498047,-4.939941 12.973632,-4.939941 11.981934,0 17.250981,6.379395 17.250981,10.669922 0,3.189453 -2.2378,5.419434 -5.099125,5.419434 -3.540527,0 -4.645508,-2.088868 -5.438477,-4.628907 -1.614746,-3.97998 -4.164062,-6.040527 -6.8833,-6.040527 -9.263184,0 -10.87793,15.129395 -10.87793,30.258789 V 145.7627 c 0,17.0498 -0.141602,29.94921 -9.744141,37.76757 -5.608886,4.62891 -9.291503,4.77051 -11.670898,4.77051 -6.713379,0 -15.353027,-4.12109 -15.353027,-10.66992 0,-2.54004 1.926269,-5.25 4.957031,-5.25 3.824219,0 4.787598,2.39941 5.580566,5.10937 l 0,0 z"
   style="fill:#010202" />
		<path
   inkscape:connector-curvature="0"
   id="path11"
   d="m 105.80078,85.555664 c 0,-17.669922 -0.48193,-16.31543 -0.48193,-18.178223 0,-1.580566 3.34277,-1.891113 6.06201,-3.048339 2.521,-1.044434 5.29736,-2.794434 6.4585,-2.794434 0.73681,0 1.21826,0.366699 1.21826,1.382813 0,0 -0.62305,6.379394 -0.62305,16.738769 v 5.899414 h 19.17725 c 0.79297,0 1.27441,0.338379 1.27441,0.959473 v 3.189453 c 0,1.439941 -2.23779,2.060547 -3.82422,2.060547 h -16.62744 v 40.618653 c 0,9.87891 0.96289,14.64941 5.26855,14.64941 4.16407,0 8.95118,-1.2705 13.11524,-4.45996 1.58643,0.16992 2.54932,1.07324 2.86133,2.70996 -6.23194,7.02832 -14.22022,10.52832 -21.58545,10.52832 -7.33643,0 -12.29346,-4.45996 -12.29346,-15.77832 V 91.765137 h -9.433104 c -0.651367,0 -0.792969,-0.141114 -0.792969,-0.931153 v -2.088867 c 0,-1.270019 0.623047,-3.189453 2.86084,-3.189453 h 7.365233 l 0,0 z"
   style="fill:#010202" />
		<path
   inkscape:connector-curvature="0"
   id="path13"
   d="m 210.58154,125.69434 c 0,-14.0293 -6.8833,-19.58985 -13.59668,-22.7793 l 0.48145,-12.899903 c 0.16992,-3.979981 1.13281,-4.459473 3.51269,-4.459473 h 22.71778 l 2.5498,14.649416 -3.99414,0.31055 c -1.27441,-7.000005 -2.23828,-7.790532 -8.1582,-7.790532 h -11.50098 l -0.79297,7 c 12.63379,6.068852 21.10352,15.299312 21.10352,27.888182 0,13.69043 -11.35938,28.19824 -35.35205,28.19824 -24.13428,0 -35.80518,-14.50781 -35.80518,-28.19824 0,-12.58887 8.46973,-21.81933 21.10352,-27.888182 l -0.79297,-7 h -11.5293 c -5.8916,0 -6.85498,0.790527 -8.12939,7.790532 l -4.02246,-0.31055 2.57763,-14.649416 h 22.68994 c 2.40772,0 3.37061,0.479492 3.51221,4.459473 l 0.48194,12.899903 c -6.71387,3.18945 -13.56885,8.75 -13.56885,22.7793 0,11.6289 9.74463,24.86718 23.17138,24.86718 13.59717,0 23.34131,-13.23828 23.34131,-24.86718 l 0,0 z"
   style="fill:#010202" />
		<path
   inkscape:connector-curvature="0"
   id="path15"
   d="m 238.11572,95.519531 -0.3125,-0.45166 c 0.3125,-2.088867 0.3125,-5.504394 0,-9.371094 l 0.3125,-0.310547 c 2.23731,0.169434 5.38184,0.310547 8.21485,0.310547 h 43.05664 c 2.83203,0 5.97656,-0.141113 8.21484,-0.310547 l 0.31152,0.310547 c -0.31152,3.866699 -0.31152,7.282227 0,9.371094 l -0.31152,0.45166 c 0,0 -4.92969,-1.637207 -23.625,-1.637207 v 33.533696 c 0,11.31836 0.16992,18.31933 1.50098,26.78711 l -0.28321,0.45117 c 0,0 -2.26562,-0.45117 -7.33593,-0.45117 -5.24121,0 -7.47852,0.45117 -7.47852,0.45117 l -0.1416,-0.45117 c 1.33105,-8.04493 1.50098,-15.6377 1.50098,-26.78711 V 93.882324 c -18.69532,0 -23.62403,1.637207 -23.62403,1.637207 l 0,0 z"
   style="fill:#010202" />
		<path
   inkscape:connector-curvature="0"
   id="path17"
   d="m 310.4624,138.73437 c 3.59766,6.83106 10.9336,11.00879 18.10059,11.00879 7.93213,0 13.45556,-5.05273 13.45556,-13.54882 0,-7.7627 -6.11914,-9.68164 -14.95654,-12.95606 -5.83594,-2.23047 -11.8125,-4.48828 -15.09863,-9.23047 -1.78418,-2.39941 -2.97461,-6.2666 -2.97461,-10.44385 0,-13.266597 13.14355,-19.363276 24.36182,-19.363276 7.61914,0 14.5039,2.68164 18.83789,5.052246 l 0.2832,0.45166 -2.97461,10.72656 -2.09766,0.16895 c -1.95312,-4.628909 -7.02343,-10.584963 -14.81445,-10.584963 -6.57178,0 -12.40674,4.008301 -12.40674,10.584963 0,7.87549 7.93164,10.55713 13.45557,12.50439 11.07617,3.72656 20.65039,7.73438 20.65039,20.85938 0,8.77929 -4.78711,21.73535 -25.57959,21.73535 -5.83496,0 -14.33301,-0.875 -23.00098,-4.17774 l 2.52051,-12.6455 2.23828,-0.14161 0,0 z"
   style="fill:#010202" />
		<path
   inkscape:connector-curvature="0"
   id="path19"
   d="m 413.09082,227.02832 h -34.38867 v -4.77051 c 21.89648,-1.60937 23.50976,-3.98047 23.50976,-17.86816 V 22.609863 c 0,-13.8593747 -1.44336,-16.2587888 -23.50976,-18.0087888 V 0 h 34.38867 v 227.02832 l 0,0 z M 380.28809,1.5810547 V 3.1333008 C 401.19238,4.9399414 403.7998,8.4116211 403.7998,22.609863 V 204.38965 c 0,14.16992 -2.57812,17.69824 -23.51171,19.33594 v 1.72168 h 31.1875 V 1.5810547 h -31.1875 l 0,0 z"
   style="fill:#010202" />
	</g><g
   id="g3207"><g
     id="g3165"><path
       d="m 135.94824,76.75781 h -5.17578 l -0.58594,-21.28906 h 3.85743 c 0.19531,2.9624 0.83007,5.55859 1.90429,7.78809 1.07422,2.22998 2.48145,4.09375 4.22363,5.59082 1.74122,1.49756 3.76758,2.6289 6.07911,3.39355 2.31054,0.76514 4.78515,1.14746 7.42187,1.14746 1.95313,0 3.79981,-0.26855 5.54199,-0.80566 1.74121,-0.53711 3.27149,-1.33447 4.58985,-2.39258 1.31836,-1.05762 2.35937,-2.36816 3.125,-3.93066 0.76465,-1.5625 1.14746,-3.35254 1.14746,-5.3711 0,-2.4414 -0.53711,-4.54101 -1.61133,-6.29883 -1.07422,-1.75781 -2.49902,-3.31201 -4.27246,-4.66308 -1.77441,-1.35059 -3.79297,-2.57129 -6.05469,-3.66211 -2.26269,-1.09033 -4.56543,-2.18067 -6.90918,-3.27149 -2.34375,-1.09033 -4.64746,-2.24609 -6.90918,-3.46679 -2.26269,-1.22071 -4.28125,-2.63672 -6.05468,-4.24805 -1.77442,-1.61133 -3.19825,-3.49121 -4.27247,-5.63965 -1.07421,-2.14844 -1.61132,-4.70361 -1.61132,-7.66601 0,-1.13916 0.12988,-2.35987 0.39062,-3.66211 0.25977,-1.30176 0.69141,-2.60401 1.29395,-3.90625 0.60156,-1.30176 1.39941,-2.56348 2.39257,-3.78418 0.99219,-1.22071 2.23731,-2.29492 3.73536,-3.22266 1.49707,-0.92773 3.27148,-1.66797 5.32226,-2.22168 2.05078,-0.55322 4.42676,-0.83008 7.12891,-0.83008 1.30176,0 2.68554,0.0815 4.15039,0.24414 1.46484,0.16309 2.9541,0.43946 4.46777,0.83008 1.51367,0.39063 3.01856,0.91992 4.5166,1.58692 1.49707,0.66748 2.92969,1.50586 4.29688,2.51464 l -0.39063,-4.29687 h 5.07813 v 21.92383 h -3.61328 c -0.16309,-2.41455 -0.62696,-4.75635 -1.3916,-7.02442 -0.76563,-2.26806 -1.87989,-4.27539 -3.34473,-6.02197 -1.46484,-1.7456 -3.27149,-3.14941 -5.41992,-4.20996 -2.14844,-1.06006 -4.6875,-1.59131 -7.61719,-1.59131 -2.08398,0 -3.92285,0.31836 -5.51758,0.95361 -1.5957,0.63624 -2.92969,1.49219 -4.0039,2.56788 -1.07422,1.07666 -1.88868,2.32421 -2.44141,3.74267 -0.55371,1.41895 -0.83008,2.91065 -0.83008,4.4751 0,2.28271 0.54492,4.26416 1.63574,5.94336 1.08985,1.68017 2.53028,3.17139 4.32129,4.47607 1.79004,1.30469 3.82422,2.49512 6.10352,3.5708 2.27832,1.07618 4.60547,2.15967 6.98242,3.25 2.37598,1.09082 4.70312,2.2627 6.98242,3.51563 2.27832,1.25342 4.3125,2.70215 6.10352,4.3457 1.79004,1.64404 3.23047,3.55664 4.32129,5.73731 1.08984,2.18115 1.63574,4.75293 1.63574,7.71484 0,2.76709 -0.52149,5.31445 -1.5625,7.6416 -1.04199,2.32764 -2.55567,4.32959 -4.54102,6.00586 -1.98633,1.67676 -4.43554,2.98682 -7.34863,3.93067 -2.91406,0.94384 -6.22559,1.41601 -9.93652,1.41601 -1.49805,0 -3.03614,-0.10596 -4.61426,-0.31738 -1.5791,-0.21192 -3.1416,-0.5293 -4.6875,-0.95215 -1.54688,-0.42285 -3.04395,-0.95996 -4.49219,-1.61133 -1.44922,-0.65088 -2.79199,-1.39941 -4.02832,-2.24609 l 0.48828,4.29687 z"
       id="path25"
       inkscape:connector-curvature="0" /><path
       d="m 182.77441,25.97656 c 1.75782,-0.0322 3.35254,-0.51269 4.78516,-1.44043 1.43164,-0.92773 2.69336,-2.083 3.78418,-3.46679 1.08984,-1.3833 2.00977,-2.88868 2.75879,-4.51661 0.74805,-1.62744 1.33398,-3.15722 1.75781,-4.58984 h 3.41797 c 0,2.66943 -0.009,5.15967 -0.0244,7.4707 -0.0166,2.31153 -0.0244,4.49219 -0.0244,6.54297 h 16.84571 v 3.90625 l -16.84571,0.19532 c -0.0332,4.32959 -0.0488,8.02441 -0.0488,11.08398 0,3.06006 -0.009,5.61523 -0.0244,7.66602 -0.0166,2.05078 -0.0244,3.67041 -0.0244,4.85839 0,1.18848 -0.009,2.0918 -0.0244,2.70996 -0.0166,0.61866 -0.0244,1.01758 -0.0244,1.19629 0,0.1792 0,0.28516 0,0.31739 0,2.27881 0.12207,4.28906 0.36621,6.03027 0.24414,1.7417 0.65918,3.20654 1.24512,4.39453 0.58593,1.18848 1.35839,2.0835 2.31933,2.68555 0.95996,0.60254 2.17285,0.90332 3.6377,0.90332 1.72461,0 3.43359,-0.52051 5.12695,-1.5625 1.69238,-1.04151 3.18945,-2.52246 4.49219,-4.44336 l 2.68554,2.19726 c -1.46484,2.21387 -2.92187,3.94727 -4.37011,5.2002 -1.44922,1.25342 -2.82422,2.19727 -4.12598,2.83203 -1.30273,0.63477 -2.51465,1.0332 -3.63769,1.19629 -1.12305,0.1626 -2.1084,0.24414 -2.95411,0.24414 -1.00976,0 -2.04296,-0.0815 -3.10058,-0.24414 -1.0586,-0.16309 -2.09961,-0.48047 -3.125,-0.95215 -1.02539,-0.47168 -1.98633,-1.13916 -2.88086,-2.00195 -0.89551,-0.86231 -1.68457,-1.97754 -2.36817,-3.34473 -0.68359,-1.36719 -1.2207,-3.02734 -1.61132,-4.98047 -0.39063,-1.95312 -0.57032,-4.26416 -0.53711,-6.93359 l 0.19531,-28.90625 -7.66602,0.0488 v -4.29688 z"
       id="path27"
       inkscape:connector-curvature="0" /><path
       d="m 260.89941,39.12061 c 0,-1.62989 0.0322,-3.02295 0.0977,-4.18018 0.0644,-1.15674 0.19531,-2.30566 0.39063,-3.44629 L 254.21,31.78711 v -4.10156 h 3.07617 c 1.43164,0 2.65235,-0.0732 3.66211,-0.21973 1.00879,-0.14648 1.8711,-0.34961 2.58789,-0.61035 0.71582,-0.26025 1.30957,-0.54492 1.78223,-0.85449 0.47168,-0.30909 0.90332,-0.64258 1.29394,-1.00098 h 2.88086 l -0.0976,37.79297 c 0,0.521 -0.009,1.18017 -0.0244,1.97754 -0.0166,0.79785 -0.041,1.62793 -0.0732,2.49023 -0.0332,0.8628 -0.0732,1.72559 -0.12207,2.58789 -0.0488,0.8628 -0.10644,1.63575 -0.1709,2.31934 l 7.17774,-0.39063 v 4.19922 h -14.30664 c -0.16309,-1.13916 -0.30176,-2.18896 -0.41504,-3.14941 -0.11426,-0.95996 -0.2041,-1.91211 -0.26856,-2.85645 -1.04199,1.042 -2.19726,2.02637 -3.46679,2.95411 -1.26954,0.92773 -2.61231,1.73339 -4.02832,2.41699 -1.41602,0.68359 -2.87305,1.22851 -4.37012,1.63574 -1.49805,0.40674 -2.97852,0.61035 -4.44336,0.61035 -2.73438,0 -5.12695,-0.36621 -7.17774,-1.09863 -2.05078,-0.73242 -3.75976,-1.94483 -5.12695,-3.6377 -1.36719,-1.69238 -2.39258,-3.93066 -3.07617,-6.71386 -0.68359,-2.78321 -1.02539,-6.2417 -1.02539,-10.37598 V 37.98828 c 0,-1.0415 0.0156,-2.09961 0.0488,-3.17383 0.0322,-1.07422 0.14648,-2.18066 0.34179,-3.32031 l -6.88476,0.29297 v -4.10156 h 3.125 c 1.39941,0 2.60351,-0.0732 3.61328,-0.21973 1.00879,-0.14648 1.87109,-0.34961 2.58789,-0.61035 0.71582,-0.26025 1.30957,-0.54492 1.78223,-0.85449 0.47168,-0.30909 0.90332,-0.64258 1.29394,-1.00098 h 2.88086 v 30.5 c 0,2.90088 0.19531,5.41748 0.58594,7.55225 0.39062,2.13476 1.0166,3.91015 1.87988,5.32763 0.86231,1.41748 1.97754,2.45996 3.34473,3.12793 1.36719,0.66846 3.04297,1.00196 5.0293,1.00196 1.26953,0 2.51464,-0.21143 3.73535,-0.63575 1.2207,-0.42334 2.38379,-0.99316 3.49121,-1.71045 1.10644,-0.71679 2.13965,-1.53173 3.10058,-2.44433 0.95996,-0.9126 1.78223,-1.89063 2.46582,-2.9336 V 60.62988 39.12061 z"
       id="path29"
       inkscape:connector-curvature="0" /><path
       d="m 329.20996,65.38086 c 0,1.04199 -0.0244,2.0918 -0.0732,3.14941 -0.0488,1.05811 -0.15527,2.27051 -0.31738,3.6377 l 7.08007,-0.39063 v 4.19922 H 321.59281 C 321.42973,75 321.29984,74.08887 321.20219,73.24219 c -0.0977,-0.84619 -0.17969,-1.67627 -0.24414,-2.49024 -1.9209,2.0835 -4.24024,3.74366 -6.95801,4.98047 -2.71875,1.23682 -5.75391,1.85547 -9.10645,1.85547 -3.09277,0 -5.94921,-0.58594 -8.56933,-1.75781 -2.6211,-1.17188 -4.89942,-2.84815 -6.83594,-5.0293 -1.9375,-2.18066 -3.45117,-4.82568 -4.54101,-7.93457 -1.09082,-3.1084 -1.63575,-6.59961 -1.63575,-10.47363 0,-4.06885 0.64258,-7.82031 1.92871,-11.25488 1.28516,-3.43409 3.06739,-6.39649 5.34668,-8.88672 2.27832,-2.49024 4.98829,-4.42676 8.12989,-5.81055 3.14062,-1.3833 6.56738,-2.0752 10.27832,-2.0752 1.10644,0 2.21289,0.0815 3.32031,0.24415 1.10645,0.16308 2.17285,0.37451 3.19824,0.63476 1.02539,0.26074 1.97754,0.55371 2.85645,0.87891 0.8789,0.32568 1.64355,0.66748 2.29492,1.02539 l 0.0488,-13.67188 c 0,-1.0415 0.008,-2.05078 0.0244,-3.02734 0.0156,-0.97656 0.10547,-2.13184 0.26856,-3.4668 l -7.08008,0.39063 V 3.17383 c 2.18066,0 3.9873,-0.0732 5.41992,-0.21973 1.43164,-0.14648 2.60352,-0.34961 3.51562,-0.61035 0.91114,-0.26025 1.61915,-0.54492 2.12403,-0.85449 0.5039,-0.30908 0.95215,-0.64258 1.34277,-1.00098 h 2.88086 v 64.89258 z m -20.70312,7.27539 c 1.10644,0 2.22949,-0.1626 3.36914,-0.48828 1.13867,-0.3252 2.2373,-0.78125 3.29589,-1.36719 1.05762,-0.58594 2.05079,-1.27734 2.97852,-2.07519 0.92773,-0.79737 1.76563,-1.66797 2.51465,-2.61231 -0.0332,-0.81348 -0.0488,-1.67627 -0.0488,-2.58789 0,-0.91113 0,-1.88769 0,-2.92969 l 0.0488,-28.80859 c -1.5957,-1.23682 -3.33692,-2.12402 -5.22461,-2.66113 -1.88867,-0.53711 -3.8252,-0.80567 -5.81055,-0.80567 -2.50683,0 -4.76953,0.55371 -6.78711,1.66016 -2.01855,1.10693 -3.73535,2.67773 -5.15136,4.71191 -1.41602,2.03467 -2.4502,4.35401 -3.10059,6.95801 -0.65137,2.60449 -0.97656,5.87598 -0.97656,9.81445 0,2.70215 0.36621,5.44434 1.09863,8.22754 0.73242,2.78321 1.72461,5.11084 2.97852,6.98243 1.25293,1.87207 2.7832,3.33691 4.58984,4.39453 1.80664,1.0581 3.88184,1.58691 6.22559,1.58691 z"
       id="path31"
       inkscape:connector-curvature="0" /><path
       d="m 388.63379,46.48438 -35.20508,0.58593 c -0.0332,3.84912 0.25977,7.33887 0.87891,10.46973 0.61816,3.13135 1.59472,5.80518 2.92968,8.02295 1.33399,2.21826 3.05176,3.93017 5.15137,5.13721 2.09961,1.20703 4.61426,1.80957 7.54395,1.80957 1.5625,0 3.15722,-0.21289 4.78515,-0.63868 1.62696,-0.42578 3.19825,-1.00634 4.71192,-1.74316 1.51367,-0.7373 2.90527,-1.62061 4.1748,-2.65186 1.26953,-1.03173 2.32715,-2.13623 3.17383,-3.31591 l 2.44141,2.00195 c -1.36719,2.0835 -2.9541,3.84961 -4.76075,5.29785 -1.80664,1.44873 -3.67871,2.62891 -5.61523,3.54004 -1.9375,0.91162 -3.88184,1.57031 -5.83496,1.97754 -1.95313,0.40674 -3.77637,0.61035 -5.46875,0.61035 -3.45117,0 -6.66504,-0.61865 -9.64356,-1.85547 -2.97851,-1.23681 -5.55859,-3.01074 -7.73925,-5.32226 -2.18164,-2.31104 -3.89844,-5.09424 -5.15137,-8.34961 -1.25391,-3.25489 -1.87988,-6.91699 -1.87988,-10.98633 0,-3.51563 0.60156,-6.87647 1.80664,-10.08301 1.2041,-3.20605 2.91308,-6.04639 5.12695,-8.52051 2.21289,-2.47363 4.86621,-4.44336 7.95898,-5.9082 3.0918,-1.46484 6.52637,-2.19727 10.30274,-2.19727 2.7666,0 5.37891,0.45606 7.83691,1.36719 2.45703,0.91162 4.61426,2.27881 6.46973,4.10156 1.85547,1.82325 3.32031,4.12598 4.39453,6.90918 1.07422,2.78321 1.61133,6.03028 1.61133,9.74122 z M 368.41895,28.32031 c -3.90625,0 -7.12891,1.14356 -9.66797,3.43116 -2.53907,2.2871 -4.21582,5.99414 -5.0293,11.11962 h 25.48828 c 0,-1.75195 -0.19531,-3.49511 -0.58594,-5.23144 -0.39062,-1.73584 -1.01757,-3.29297 -1.87988,-4.67139 -0.86328,-1.3789 -1.97754,-2.49804 -3.34473,-3.35791 -1.36718,-0.85986 -3.02734,-1.29004 -4.98046,-1.29004 z"
       id="path33"
       inkscape:connector-curvature="0" /><path
       d="m 403.52637,37.98828 c 0,-1.0415 0.0156,-2.09961 0.0488,-3.17383 0.0322,-1.07422 0.14648,-2.18066 0.34179,-3.32031 l -7.08008,0.39063 v -4.19922 c 2.18067,0 3.95508,-0.0732 5.32227,-0.21973 1.36719,-0.14648 2.46582,-0.34961 3.2959,-0.61035 0.83008,-0.26025 1.47265,-0.54492 1.92871,-0.85449 0.45508,-0.30909 0.87891,-0.64258 1.26953,-1.00098 h 2.88086 c 0.0645,0.74902 0.13769,1.60352 0.21973,2.56348 0.0811,0.96045 0.15429,2.12402 0.21972,3.49121 1.07422,-0.94385 2.25391,-1.82276 3.54004,-2.63672 1.28516,-0.81348 2.62793,-1.52149 4.02832,-2.12402 1.39942,-0.60206 2.83985,-1.07422 4.32129,-1.41602 1.48047,-0.3418 2.9375,-0.5127 4.37012,-0.5127 5.79394,0 10.02539,1.81495 12.69531,5.44434 2.66895,3.62988 4.00391,9.26953 4.00391,16.91895 v 18.65234 c 0,1.33496 -0.0166,2.51465 -0.0488,3.54004 -0.0332,1.02539 -0.14649,2.10791 -0.3418,3.24707 l 6.29883,-0.29297 v 4.10156 h -20.41016 v -2.97851 c 1.5293,0 2.69336,-0.30078 3.49122,-0.90332 0.79687,-0.60205 1.375,-1.44043 1.73339,-2.51465 0.35743,-1.07422 0.56153,-2.35986 0.61036,-3.85742 0.0488,-1.49707 0.0732,-3.14112 0.0732,-4.93164 V 46.82617 c -0.0654,-5.76172 -1.00977,-10.09912 -2.83203,-13.01269 -1.82325,-2.91309 -4.72071,-4.37012 -8.69141,-4.37012 -1.20508,0 -2.40918,0.1792 -3.61328,0.53711 -1.20508,0.3584 -2.36035,0.82226 -3.4668,1.3916 -1.10742,0.56982 -2.14844,1.24512 -3.125,2.02637 -0.97656,0.78125 -1.82324,1.62793 -2.53906,2.53906 0.0322,0.58594 0.0488,1.21289 0.0488,1.87988 0,0.66748 0,1.34278 0,2.02637 l -0.0977,25.53711 c 0,1.33496 -0.0166,2.51465 -0.0488,3.54004 -0.0332,1.02539 -0.14648,2.10791 -0.34179,3.24707 l 6.29882,-0.29297 v 4.10156 h -20.41015 v -2.97851 c 1.52929,0 2.69336,-0.30078 3.49121,-0.90332 0.79687,-0.60205 1.36719,-1.44043 1.70898,-2.51465 0.3418,-1.07422 0.53711,-2.35986 0.58594,-3.85742 0.0488,-1.49707 0.0889,-3.14112 0.12207,-4.93164 l 0.0977,-22.80274 z"
       id="path35"
       inkscape:connector-curvature="0" /><path
       d="m 455.04004,25.97656 c 1.75781,-0.0322 3.35254,-0.51269 4.78516,-1.44043 1.43164,-0.92773 2.69335,-2.083 3.78418,-3.46679 1.08984,-1.3833 2.00976,-2.88868 2.75878,-4.51661 0.74805,-1.62744 1.33399,-3.15722 1.75782,-4.58984 h 3.41797 c 0,2.66943 -0.009,5.15967 -0.0244,7.4707 -0.0166,2.31153 -0.0244,4.49219 -0.0244,6.54297 h 16.8457 v 3.90625 l -16.8457,0.19532 c -0.0332,4.32959 -0.0488,8.02441 -0.0488,11.08398 0,3.06006 -0.009,5.61523 -0.0244,7.66602 -0.0166,2.05078 -0.0244,3.67041 -0.0244,4.85839 0,1.18848 -0.009,2.0918 -0.0244,2.70996 -0.0166,0.61866 -0.0244,1.01758 -0.0244,1.19629 0,0.1792 0,0.28516 0,0.31739 0,2.27881 0.12207,4.28906 0.36621,6.03027 0.24414,1.7417 0.65918,3.20654 1.24512,4.39453 0.58594,1.18848 1.3584,2.0835 2.31934,2.68555 0.95996,0.60254 2.17285,0.90332 3.63769,0.90332 1.72461,0 3.4336,-0.52051 5.12696,-1.5625 1.69238,-1.04151 3.18945,-2.52246 4.49218,-4.44336 l 2.68555,2.19726 c -1.46484,2.21387 -2.92188,3.94727 -4.37012,5.2002 -1.44922,1.25342 -2.82422,2.19727 -4.12597,2.83203 -1.30274,0.63477 -2.51465,1.0332 -3.6377,1.19629 -1.12305,0.1626 -2.1084,0.24414 -2.9541,0.24414 -1.00977,0 -2.04297,-0.0815 -3.10059,-0.24414 -1.05859,-0.16309 -2.09961,-0.48047 -3.125,-0.95215 -1.02539,-0.47168 -1.98633,-1.13916 -2.88086,-2.00195 -0.8955,-0.86231 -1.68457,-1.97754 -2.36816,-3.34473 -0.68359,-1.36719 -1.2207,-3.02734 -1.61133,-4.98047 -0.39062,-1.95312 -0.57031,-4.26416 -0.53711,-6.93359 l 0.19531,-28.90625 -7.66601,0.0488 v -4.29688 z"
       id="path37"
       inkscape:connector-curvature="0" /><path
       d="m 501.96387,37.98828 c 0,-1.0415 0.0244,-2.05078 0.0732,-3.02734 0.0488,-0.97656 0.1543,-2.13184 0.31738,-3.4668 l -7.08008,0.39063 v -4.19922 c 2.18067,0 3.98731,-0.0732 5.41993,-0.21973 1.43164,-0.14648 2.60351,-0.34961 3.51562,-0.61035 0.91113,-0.26025 1.61914,-0.54492 2.12402,-0.85449 0.50391,-0.30909 0.95215,-0.64258 1.34278,-1.00098 h 2.88086 v 40.38086 c 0,1.33496 -0.0166,2.51465 -0.0488,3.54004 -0.0332,1.02539 -0.14649,2.10791 -0.3418,3.24707 l 6.29883,-0.29297 v 4.10156 h -20.41016 v -2.97851 c 1.5293,0 2.69336,-0.30078 3.49121,-0.90332 0.79688,-0.60205 1.375,-1.44043 1.7334,-2.51465 0.35743,-1.07422 0.56153,-2.35986 0.61035,-3.85742 0.0488,-1.49707 0.0732,-3.14112 0.0732,-4.93164 V 37.98828 z m 9.52148,-28.80859 c 0,0.81396 -0.15527,1.5791 -0.46387,2.29492 -0.30957,0.71631 -0.708,1.34277 -1.19628,1.87988 -0.48829,0.53711 -1.0586,0.95215 -1.70899,1.24512 -0.65137,0.29297 -1.33496,0.43945 -2.05078,0.43945 -0.7168,0 -1.40039,-0.14648 -2.05078,-0.43945 -0.65137,-0.29297 -1.22949,-0.70801 -1.7334,-1.24512 -0.50488,-0.53711 -0.89551,-1.16357 -1.17188,-1.87988 -0.27734,-0.71582 -0.41503,-1.48096 -0.41503,-2.29492 0,-0.84619 0.14648,-1.63574 0.43945,-2.36817 0.29297,-0.73242 0.69141,-1.375 1.19629,-1.92871 0.5039,-0.55322 1.08203,-0.98437 1.7334,-1.29394 0.65039,-0.30908 1.35058,-0.46387 2.09961,-0.46387 0.74804,0 1.44043,0.15479 2.07519,0.46387 0.63477,0.30957 1.19629,0.74072 1.68457,1.29394 0.48828,0.55371 0.87012,1.19629 1.14746,1.92871 0.27637,0.73243 0.41504,1.52198 0.41504,2.36817 z"
       id="path39"
       inkscape:connector-curvature="0" /><path
       d="m 542.88184,73.63281 c 1.26953,0 2.54687,-0.15429 3.833,-0.4624 1.28516,-0.3081 2.45704,-0.78711 3.51563,-1.43652 1.05762,-0.64942 1.91992,-1.46924 2.58789,-2.45996 0.66699,-0.99024 1.00098,-2.16651 1.00098,-3.52979 0,-1.59082 -0.41504,-2.94678 -1.24512,-4.06641 -0.83008,-1.12011 -1.9209,-2.10986 -3.27149,-2.97021 -1.35156,-0.86084 -2.89746,-1.63135 -4.63867,-2.31348 -1.74219,-0.68213 -3.51562,-1.38086 -5.32226,-2.09716 -1.80664,-0.71582 -3.57325,-1.50538 -5.29785,-2.36817 -1.72559,-0.8623 -3.26368,-1.87988 -4.61426,-3.05176 -1.35157,-1.17187 -2.44141,-2.57129 -3.27149,-4.19922 -0.83008,-1.62744 -1.24511,-3.56445 -1.24511,-5.81054 0,-1.39942 0.25976,-2.9375 0.78125,-4.61426 0.5205,-1.67627 1.43164,-3.24707 2.73437,-4.71191 1.30176,-1.46485 3.05176,-2.69336 5.24902,-3.68653 2.19727,-0.99267 4.97168,-1.48926 8.3252,-1.48926 0.91113,0 1.87988,0.0654 2.90527,0.19532 1.02539,0.13037 2.0752,0.36621 3.14942,0.70801 1.07422,0.34179 2.14843,0.78955 3.22265,1.34277 1.07422,0.55371 2.13184,1.2373 3.17383,2.05078 l -0.24414,-3.80859 h 4.19922 v 17.52929 h -3.125 c -0.13086,-1.72509 -0.46387,-3.43408 -1.00098,-5.12695 -0.53711,-1.69238 -1.31836,-3.21436 -2.34375,-4.56543 -1.02539,-1.35059 -2.31933,-2.44922 -3.88183,-3.2959 -1.5625,-0.84619 -3.41797,-1.26953 -5.56641,-1.26953 -1.5625,0 -2.94629,0.20361 -4.15039,0.61035 -1.20508,0.40723 -2.22168,0.96045 -3.05176,1.66016 -0.83008,0.70019 -1.45703,1.50586 -1.87988,2.41699 -0.42383,0.91162 -0.63477,1.87207 -0.63477,2.88086 0,1.62793 0.41504,3.02734 1.24512,4.19922 0.83008,1.17187 1.92871,2.21387 3.2959,3.125 1.36719,0.91162 2.92969,1.7334 4.6875,2.46582 1.75781,0.73242 3.54785,1.48144 5.37109,2.24609 1.82227,0.76514 3.61328,1.5791 5.3711,2.44141 1.75781,0.86279 3.32031,1.87988 4.6875,3.05176 1.36718,1.17187 2.46582,2.53906 3.2959,4.10156 0.83007,1.5625 1.24511,3.41797 1.24511,5.56641 0,2.50683 -0.50488,4.6875 -1.51367,6.54296 -1.00976,1.85547 -2.33594,3.38575 -3.97949,4.58985 -1.64453,1.20459 -3.5,2.09961 -5.56641,2.68555 -2.06738,0.58593 -4.15918,0.8789 -6.27441,0.8789 -3.38574,0 -6.36426,-0.44775 -8.93555,-1.34277 -2.57226,-0.89502 -4.6875,-1.91211 -6.34765,-3.05176 l 0.34179,3.4668 h -4.19922 l -0.58593,-17.1875 h 3.07617 c 0.12988,2.07666 0.61035,3.98242 1.44043,5.71728 0.83008,1.73584 1.91992,3.22803 3.27148,4.47705 1.35059,1.24903 2.89649,2.22266 4.63867,2.91992 1.74121,0.69727 3.58887,1.0459 5.542,1.0459 z"
       id="path41"
       inkscape:connector-curvature="0" /><path
       d="m 606.94434,33.44727 c -0.45606,-1.17188 -1.12305,-2.10743 -2.00196,-2.80762 -0.8789,-0.69971 -1.83105,-1.24512 -2.85644,-1.63574 -1.02539,-0.39063 -2.05078,-0.64258 -3.07617,-0.75684 -1.0254,-0.11377 -1.87989,-0.1709 -2.56348,-0.1709 -2.2793,0 -4.40332,0.46387 -6.37207,1.3916 -1.96973,0.92774 -3.6709,2.28711 -5.10254,4.07715 -1.43262,1.79053 -2.56348,4.02051 -3.39356,6.68946 -0.83007,2.66943 -1.24511,5.72949 -1.24511,9.17968 0,3.32032 0.41504,6.38867 1.24511,9.2041 0.83008,2.81592 1.99317,5.24122 3.49122,7.2754 1.49707,2.03466 3.30371,3.62158 5.41992,4.76074 2.11523,1.13965 4.45898,1.70898 7.03125,1.70898 1.5625,0 3.1084,-0.21972 4.63867,-0.65918 1.5293,-0.43945 2.97852,-1.0498 4.3457,-1.83105 1.36719,-0.78125 2.62793,-1.69239 3.78418,-2.73438 1.15528,-1.0415 2.13965,-2.16455 2.9541,-3.36914 l 2.58789,2.00195 c -1.33496,2.0835 -2.85644,3.86573 -4.56543,5.34668 -1.70898,1.48145 -3.5,2.70215 -5.37109,3.66211 -1.87207,0.96045 -3.75976,1.66797 -5.66406,2.12403 -1.9043,0.45556 -3.70313,0.68359 -5.39551,0.68359 -3.38574,0 -6.57617,-0.57812 -9.57031,-1.7334 -2.99512,-1.15527 -5.61524,-2.83203 -7.86133,-5.02929 -2.24609,-2.19727 -4.02051,-4.89063 -5.32227,-8.08106 -1.30273,-3.18994 -1.95312,-6.81933 -1.95312,-10.88867 0,-2.31104 0.28418,-4.58984 0.85449,-6.83594 0.56934,-2.24609 1.3916,-4.38623 2.46582,-6.4209 1.07422,-2.03418 2.37598,-3.92236 3.90625,-5.66406 1.5293,-1.74121 3.2627,-3.24707 5.2002,-4.5166 1.93652,-1.26953 4.05273,-2.26221 6.34765,-2.97852 2.29493,-0.71582 4.72754,-1.07422 7.29981,-1.07422 2.7666,0 5.28906,0.3418 7.56836,1.0254 2.27832,0.68359 4.23144,1.59521 5.85937,2.73437 1.62696,1.13965 2.88086,2.44971 3.75977,3.93066 0.8789,1.48145 1.31836,3.03565 1.31836,4.66309 0,1.43262 -0.39942,2.66113 -1.19629,3.68652 -0.79785,1.02539 -1.94531,1.55469 -3.44238,1.58692 -0.87891,0.0327 -1.61133,-0.10547 -2.19727,-0.41504 -0.58594,-0.30908 -1.05859,-0.69141 -1.41602,-1.14746 -0.35839,-0.45557 -0.61914,-0.95215 -0.78125,-1.48926 -0.16308,-0.53711 -0.24414,-1.01709 -0.24414,-1.44043 0,-0.65088 0.10547,-1.33447 0.31739,-2.05078 0.21093,-0.71582 0.61035,-1.3833 1.19629,-2.00195 z"
       id="path43"
       inkscape:connector-curvature="0" /><path
       d="m 628.62402,13.47656 c 0,-1.0415 0.008,-2.05078 0.0244,-3.02734 0.0156,-0.97656 0.10547,-2.13184 0.26855,-3.4668 l -7.08008,0.39063 V 3.17383 c 2.18067,0 3.99512,-0.0732 5.44434,-0.21973 1.44824,-0.14648 2.62793,-0.34961 3.54004,-0.61035 0.91113,-0.26025 1.62695,-0.54492 2.14844,-0.85449 0.5205,-0.30908 0.97656,-0.64258 1.36718,-1.00098 h 2.88086 v 30.46875 c 1.10645,-0.91113 2.31055,-1.77392 3.61328,-2.58789 1.30176,-0.81348 2.66114,-1.51367 4.07715,-2.09961 1.41602,-0.58594 2.86426,-1.0498 4.34571,-1.3916 1.48047,-0.3418 2.9375,-0.5127 4.37011,-0.5127 2.89649,0 5.38672,0.44776 7.47071,1.34278 2.083,0.89551 3.78418,2.26269 5.10254,4.10156 1.31836,1.83936 2.29492,4.16699 2.92968,6.98242 0.63477,2.81592 0.96778,6.12793 1.00098,9.93653 l 0.0977,18.65234 c 0,1.33496 -0.0166,2.51465 -0.0488,3.54004 -0.0332,1.02539 -0.14649,2.10791 -0.3418,3.24707 l 6.29883,-0.29297 v 4.10156 h -20.41016 v -2.97851 c 1.5293,0 2.69336,-0.30078 3.49121,-0.90332 0.79688,-0.60205 1.375,-1.44043 1.7334,-2.51465 0.35742,-1.07422 0.56153,-2.35986 0.61035,-3.85742 0.0488,-1.49707 0.0733,-3.14112 0.0733,-4.93164 V 46.82617 c 0,-5.76172 -0.91211,-10.0664 -2.73438,-12.91504 -1.82324,-2.84814 -4.7207,-4.27246 -8.69141,-4.27246 -1.13964,0 -2.34375,0.16309 -3.61328,0.48828 -1.26953,0.32569 -2.46582,0.76514 -3.58886,1.31836 -1.12305,0.55371 -2.18164,1.20459 -3.17383,1.95313 -0.99317,0.74902 -1.86426,1.5625 -2.61231,2.4414 v 29.54102 c 0,1.33496 -0.0332,2.51465 -0.0976,3.54004 -0.0654,1.02539 -0.19532,2.10791 -0.39063,3.24707 l 6.29883,-0.29297 v 4.10156 h -20.41016 v -2.97851 c 1.5293,0 2.70118,-0.30078 3.51563,-0.90332 0.81348,-0.60205 1.40723,-1.44043 1.78223,-2.51465 0.37402,-1.07422 0.58593,-2.35986 0.63476,-3.85742 0.0488,-1.49707 0.0732,-3.14112 0.0732,-4.93164 V 13.47656 z"
       id="path45"
       inkscape:connector-curvature="0" /><path
       d="m 728.86816,46.48438 -35.20507,0.58593 c -0.0332,3.84912 0.25976,7.33887 0.8789,10.46973 0.61817,3.13135 1.59473,5.80518 2.92969,8.02295 1.33398,2.21826 3.05176,3.93017 5.15137,5.13721 2.09961,1.20703 4.61425,1.80957 7.54394,1.80957 1.5625,0 3.15723,-0.21289 4.78516,-0.63868 1.62695,-0.42578 3.19824,-1.00634 4.71191,-1.74316 1.51367,-0.7373 2.90528,-1.62061 4.17481,-2.65186 1.26953,-1.03173 2.32715,-2.13623 3.17383,-3.31591 l 2.4414,2.00195 c -1.36719,2.0835 -2.9541,3.84961 -4.76074,5.29785 -1.80664,1.44873 -3.67871,2.62891 -5.61523,3.54004 -1.9375,0.91162 -3.88184,1.57031 -5.83497,1.97754 -1.95312,0.40674 -3.77636,0.61035 -5.46875,0.61035 -3.45117,0 -6.66503,-0.61865 -9.64355,-1.85547 -2.97852,-1.23681 -5.55859,-3.01074 -7.73926,-5.32226 -2.18164,-2.31104 -3.89844,-5.09424 -5.15137,-8.34961 -1.2539,-3.25489 -1.87988,-6.91699 -1.87988,-10.98633 0,-3.51563 0.60156,-6.87647 1.80664,-10.08301 1.2041,-3.20605 2.91309,-6.04639 5.12696,-8.52051 2.21289,-2.47363 4.86621,-4.44336 7.95898,-5.9082 3.0918,-1.46484 6.52637,-2.19727 10.30273,-2.19727 2.76661,0 5.37891,0.45606 7.83692,1.36719 2.45703,0.91162 4.61426,2.27881 6.46972,4.10156 1.85547,1.82325 3.32032,4.12598 4.39454,6.90918 1.07422,2.78321 1.61132,6.03028 1.61132,9.74122 z M 708.65332,28.32031 c -3.90625,0 -7.12891,1.14356 -9.66797,3.43116 -2.53906,2.2871 -4.21582,5.99414 -5.0293,11.11962 h 25.48829 c 0,-1.75195 -0.19532,-3.49511 -0.58594,-5.23144 -0.39063,-1.73584 -1.01758,-3.29297 -1.87988,-4.67139 -0.86329,-1.3789 -1.97754,-2.49804 -3.34473,-3.35791 -1.36719,-0.85986 -3.02734,-1.29004 -4.98047,-1.29004 z"
       id="path47"
       inkscape:connector-curvature="0" /></g><g
     id="g3179"><path
       d="m 810.08887,27.09961 c -0.0654,-2.96191 -0.29297,-5.54199 -0.6836,-7.73926 -0.39062,-2.19726 -1.07422,-4.02002 -2.05078,-5.46875 -0.97656,-1.44824 -2.29492,-2.53076 -3.95508,-3.24707 -1.66015,-0.71582 -3.77636,-1.07422 -6.34765,-1.07422 l -8.44727,0.0488 -0.14648,54.48633 c 0,3.5835 -0.0977,6.22217 -0.29297,7.91602 l 8.30078,-0.39063 v 4.3457 h -23.48633 v -3.27148 c 1.85547,-0.0649 3.25488,-0.42334 4.19922,-1.07519 0.94336,-0.65137 1.61133,-1.52247 2.00195,-2.61377 0.39063,-1.09082 0.58594,-2.36963 0.58594,-3.83594 0,-1.46631 0,-3.04639 0,-4.74024 l 0.14649,-50.72314 -10.35157,0.0488 c -2.11621,0 -3.89843,0.3501 -5.34668,1.0498 -1.44922,0.7002 -2.6289,1.76612 -3.54004,3.19825 -0.9121,1.43261 -1.57128,3.23095 -1.97753,5.3955 -0.40723,2.16504 -0.61036,4.72852 -0.61036,7.69043 h -3.71093 l 0.58593,-21.14257 h 58.30079 l 0.58593,21.14257 h -3.75976 z"
       id="path49"
       inkscape:connector-curvature="0" /><path
       d="m 820.19629,36.37695 c 0,-1.66015 0.48828,-3.22265 1.46484,-4.6875 0.97657,-1.46484 2.34375,-2.74218 4.10157,-3.833 1.75781,-1.09034 3.84863,-1.94483 6.27441,-2.56348 2.4248,-0.61816 5.06934,-0.92774 7.93457,-0.92774 5.59863,0 9.72461,1.48145 12.37793,4.44336 2.65234,2.96241 3.96289,7.66602 3.93066,14.11133 l -0.0976,22.46094 c 0,1.04199 -0.0244,2.0918 -0.0732,3.14941 -0.0488,1.05811 -0.15528,2.27051 -0.31739,3.6377 l 7.08008,-0.39063 v 4.19922 h -14.30664 c -0.19531,-1.13916 -0.3418,-2.13183 -0.43945,-2.97851 -0.0977,-0.84619 -0.17969,-1.74121 -0.24414,-2.68555 -2.2461,2.24609 -4.69629,4.02051 -7.34864,5.32227 -2.65332,1.30175 -5.46093,1.95312 -8.42285,1.95312 -2.50683,0 -4.69629,-0.30127 -6.56738,-0.90332 -1.87207,-0.60254 -3.42676,-1.44043 -4.66309,-2.51465 -1.2373,-1.07422 -2.16504,-2.33545 -2.7832,-3.78418 -0.61914,-1.44824 -0.92773,-3.00293 -0.92773,-4.66308 0,-2.05078 0.44726,-3.92237 1.34277,-5.61524 0.89453,-1.69238 2.09961,-3.19824 3.61328,-4.5166 1.51367,-1.31836 3.2793,-2.45752 5.29785,-3.41797 2.01758,-0.95996 4.1582,-1.74951 6.4209,-2.36816 2.26172,-0.61817 4.57324,-1.06592 6.93359,-1.34278 2.35938,-0.27636 4.66309,-0.39843 6.90918,-0.36621 v -6.25 c 0,-1.72509 -0.0976,-3.40136 -0.29297,-5.02929 -0.19531,-1.62744 -0.62695,-3.1084 -1.29394,-4.44336 -0.66797,-1.33448 -1.70898,-2.39258 -3.125,-3.17383 -1.41602,-0.78125 -3.05176,-1.17188 -4.90723,-1.17188 -1.07422,0 -2.09961,0.0898 -3.07617,0.26856 -0.97656,0.1792 -1.9375,0.48047 -2.88086,0.90332 -0.94433,0.42334 -1.79883,0.97656 -2.56347,1.66016 -0.76563,0.68359 -1.39161,1.49755 -1.87989,2.4414 0.48828,0.55371 0.82129,1.16406 1.00098,1.83106 0.17871,0.66748 0.26855,1.31054 0.26855,1.92871 0,0.39062 -0.082,0.83838 -0.24414,1.34277 -0.16308,0.50488 -0.41504,0.97656 -0.75683,1.41602 -0.3418,0.43945 -0.78125,0.79785 -1.31836,1.07422 -0.53711,0.27685 -1.26172,0.41503 -2.17285,0.41503 -1.30274,0 -2.33594,-0.47998 -3.10059,-1.44043 -0.76563,-0.95996 -1.14746,-2.12402 -1.14746,-3.49121 z m 27.44141,15.13672 c -1.53028,0.0654 -3.11719,0.20362 -4.76075,0.41504 -1.64453,0.21192 -3.25586,0.53711 -4.83398,0.97656 -1.5791,0.43946 -3.06836,1.00098 -4.46777,1.68457 -1.4004,0.6836 -2.6211,1.49756 -3.66211,2.44141 -1.042,0.94434 -1.85547,2.03467 -2.44141,3.27148 -0.58594,1.23731 -0.84668,2.63672 -0.78125,4.19922 0.0322,1.23731 0.26855,2.31934 0.70801,3.24707 0.43945,0.92774 1.00879,1.69288 1.70898,2.29493 0.69922,0.60254 1.50488,1.0581 2.41699,1.36718 0.91114,0.30957 1.8877,0.46387 2.92969,0.46387 1.33399,0 2.58789,-0.12988 3.75977,-0.39062 1.17187,-0.26026 2.28613,-0.64258 3.34472,-1.14747 1.05762,-0.50439 2.08301,-1.11474 3.07618,-1.83105 0.99218,-0.71582 1.99316,-1.5459 3.00293,-2.49023 V 51.51367 z"
       id="path51"
       inkscape:connector-curvature="0" /><path
       d="m 913.7998,23.97461 c -0.84668,0.13037 -1.5957,0.39893 -2.24609,0.80566 -0.65137,0.40723 -1.2207,0.91993 -1.70898,1.53809 -0.48828,0.61865 -0.8877,1.29395 -1.19629,2.02637 -0.30957,0.73242 -0.5459,1.47314 -0.70801,2.22168 1.66016,1.53027 2.96973,3.32031 3.93066,5.37109 0.95996,2.05078 1.44043,4.23193 1.44043,6.54297 0,2.83203 -0.57812,5.42822 -1.7334,7.78809 -1.15625,2.36035 -2.70996,4.39453 -4.66308,6.10351 -1.95313,1.70899 -4.20801,3.03565 -6.7627,3.97949 -2.55566,0.94434 -5.23339,1.41602 -8.03222,1.41602 -1.23731,0 -2.33594,-0.0811 -3.2959,-0.24414 -0.96094,-0.1626 -2.0918,-0.24414 -3.39356,-0.24414 -1.2373,0 -2.36816,0.16308 -3.39355,0.48828 -1.02539,0.32568 -1.88867,0.77344 -2.58789,1.34277 -0.7002,0.56983 -1.16406,1.12305 -1.3916,1.66016 -0.22852,0.53711 -0.3418,1.00097 -0.3418,1.3916 0,0.39062 0.0644,0.79785 0.19531,1.2207 0.22754,0.78125 0.75684,1.41602 1.58692,1.9043 0.83008,0.48828 1.91211,0.87109 3.24707,1.14746 1.33398,0.27686 2.9209,0.48047 4.76074,0.61035 1.83887,0.13037 3.91406,0.24414 6.22559,0.3418 3.84082,0.16309 7.2832,0.5293 10.32714,1.09863 3.04297,0.56983 5.62305,1.43262 7.73926,2.58789 2.11524,1.15528 3.73535,2.65283 4.8584,4.49219 1.12305,1.83887 1.68457,4.10938 1.68457,6.81152 0,2.70166 -0.72461,5.08594 -2.17285,7.15332 -1.44922,2.0669 -3.33692,3.8086 -5.66406,5.22461 -2.32813,1.41602 -4.94825,2.49024 -7.86133,3.22266 -2.91406,0.73242 -5.85156,1.09863 -8.81348,1.09863 -4.49219,0 -8.32519,-0.39062 -11.49902,-1.17187 -3.17383,-0.78125 -5.75391,-1.81494 -7.73926,-3.10059 -1.98633,-1.28613 -3.43457,-2.73437 -4.3457,-4.3457 -0.91211,-1.61133 -1.36719,-3.24707 -1.36719,-4.90723 0,-1.53027 0.29297,-2.92969 0.87891,-4.19922 0.58593,-1.26953 1.32617,-2.40918 2.22168,-3.41797 0.89453,-1.00927 1.88769,-1.87988 2.97851,-2.6123 1.08985,-0.73242 2.13965,-1.32666 3.14942,-1.78223 -2.14844,-0.65136 -3.8418,-1.58691 -5.07813,-2.80761 -1.2373,-1.22071 -1.85547,-2.90528 -1.85547,-5.05372 0,-1.17187 0.24414,-2.31933 0.73242,-3.44238 0.48828,-1.12304 1.17188,-2.15625 2.05078,-3.10058 0.87891,-0.94385 1.92872,-1.74121 3.14942,-2.39258 1.2207,-0.65088 2.56348,-1.10645 4.02832,-1.36719 -1.53027,-0.71582 -2.91406,-1.58691 -4.15039,-2.6123 -1.23731,-1.02539 -2.29492,-2.18067 -3.17383,-3.4668 -0.87891,-1.28565 -1.55469,-2.69336 -2.02637,-4.22363 -0.47265,-1.52979 -0.708,-3.17383 -0.708,-4.93164 0,-2.99463 0.61035,-5.71289 1.83105,-8.1543 1.2207,-2.44141 2.81543,-4.52442 4.78516,-6.25 1.96875,-1.7251 4.21484,-3.05176 6.73828,-3.97949 2.52246,-0.92774 5.08594,-1.39161 7.69043,-1.39161 2.24609,0 4.45898,0.31739 6.64062,0.95215 2.18067,0.63477 4.19922,1.5708 6.05469,2.80762 0.48828,-1.39941 1.15527,-2.70166 2.00195,-3.90625 0.84571,-1.2041 1.79785,-2.23779 2.85645,-3.10059 1.05762,-0.8623 2.20508,-1.53808 3.44238,-2.02636 1.23633,-0.48828 2.52246,-0.73242 3.85742,-0.73242 1.69239,0 3.00293,0.43945 3.93067,1.31835 0.92773,0.87891 1.3916,2.09961 1.3916,3.66211 0,0.39063 -0.082,0.83008 -0.24414,1.31836 -0.16309,0.48829 -0.41504,0.94434 -0.75684,1.36719 -0.34179,0.42334 -0.79004,0.78125 -1.34277,1.07422 -0.55371,0.29297 -1.2207,0.42334 -2.00195,0.39063 -1.13965,-0.0322 -2.06739,-0.38233 -2.78321,-1.04981 -0.71679,-0.66699 -1.17187,-1.48926 -1.36719,-2.46582 z m -20.99609,55.27344 c -1.85547,-0.0654 -3.64648,-0.14649 -5.37109,-0.24414 -1.72559,-0.0977 -3.36914,-0.27686 -4.93164,-0.53711 -1.85547,1.20068 -3.28028,2.6626 -4.27246,4.38379 -0.99317,1.72119 -1.48926,3.55615 -1.48926,5.50488 0,1.65625 0.39844,3.1416 1.19629,4.45752 0.79687,1.31445 1.93652,2.44287 3.41797,3.38525 1.48046,0.94141 3.27148,1.66407 5.37109,2.16846 2.09961,0.50244 4.43457,0.75439 7.00684,0.75439 2.86425,0 5.42773,-0.29199 7.69043,-0.87646 2.26171,-0.58447 4.1748,-1.36426 5.7373,-2.33789 1.5625,-0.9751 2.75,-2.10352 3.56445,-3.38574 0.81348,-1.28321 1.22071,-2.63916 1.22071,-4.06739 0,-1.85107 -0.48047,-3.35302 -1.44043,-4.50488 -0.96094,-1.15381 -2.29493,-2.06299 -4.00391,-2.72754 -1.70898,-0.66601 -3.72754,-1.13721 -6.05469,-1.4126 -2.32812,-0.27685 -4.875,-0.46289 -7.6416,-0.56054 z M 891.9248,27.88086 c -1.79101,0 -3.38574,0.3584 -4.78515,1.07422 -1.40039,0.71631 -2.58008,1.70898 -3.54004,2.97851 -0.96094,1.26954 -1.69336,2.76709 -2.19727,4.49219 -0.50488,1.72559 -0.75683,3.58106 -0.75683,5.56641 0,2.40918 0.25976,4.59814 0.78125,6.56738 0.52051,1.96973 1.28515,3.67041 2.29492,5.10254 1.00879,1.43262 2.24609,2.53906 3.71094,3.32031 1.46484,0.78125 3.125,1.17188 4.98047,1.17188 1.85546,0 3.47461,-0.3418 4.85839,-1.02539 1.38282,-0.6836 2.53907,-1.63575 3.4668,-2.85645 0.92774,-1.2207 1.62695,-2.66894 2.09961,-4.3457 0.47168,-1.67627 0.70801,-3.49121 0.70801,-5.44434 0,-2.18066 -0.24414,-4.28027 -0.73242,-6.29883 -0.48828,-2.01806 -1.22071,-3.78418 -2.19727,-5.29785 -0.97656,-1.51367 -2.18945,-2.72607 -3.63769,-3.63769 -1.44922,-0.91114 -3.13379,-1.36719 -5.05372,-1.36719 z"
       id="path53"
       inkscape:connector-curvature="0" /><path
       d="m 962.18848,39.12061 c 0,-1.62989 0.0322,-3.02295 0.0976,-4.18018 0.0645,-1.15674 0.19532,-2.30566 0.39063,-3.44629 l -7.17774,0.29297 v -4.10156 h 3.07618 c 1.43164,0 2.65234,-0.0732 3.6621,-0.21973 1.00879,-0.14648 1.8711,-0.34961 2.5879,-0.61035 0.71582,-0.26025 1.30957,-0.54492 1.78222,-0.85449 0.47168,-0.30909 0.90332,-0.64258 1.29395,-1.00098 h 2.88086 l -0.0977,37.79297 c 0,0.521 -0.009,1.18017 -0.0244,1.97754 -0.0166,0.79785 -0.041,1.62793 -0.0733,2.49023 -0.0332,0.8628 -0.0732,1.72559 -0.12207,2.58789 -0.0488,0.8628 -0.10644,1.63575 -0.17089,2.31934 l 7.17773,-0.39063 v 4.19922 h -14.30664 c -0.16309,-1.13916 -0.30176,-2.18896 -0.41504,-3.14941 -0.11426,-0.95996 -0.2041,-1.91211 -0.26855,-2.85645 -1.042,1.042 -2.19727,2.02637 -3.4668,2.95411 -1.26953,0.92773 -2.61231,1.73339 -4.02832,2.41699 -1.41602,0.68359 -2.87305,1.22851 -4.37012,1.63574 -1.49805,0.40674 -2.97851,0.61035 -4.44336,0.61035 -2.73437,0 -5.12695,-0.36621 -7.17773,-1.09863 -2.05078,-0.73242 -3.75977,-1.94483 -5.12696,-3.6377 -1.36718,-1.69238 -2.39257,-3.93066 -3.07617,-6.71386 C 930.1084,63.35449 929.7666,59.896 929.7666,55.76172 V 37.98828 c 0,-1.0415 0.0156,-2.09961 0.0488,-3.17383 0.0322,-1.07422 0.14648,-2.18066 0.3418,-3.32031 l -6.88477,0.29297 v -4.10156 h 3.125 c 1.39941,0 2.60352,-0.0732 3.61328,-0.21973 1.00879,-0.14648 1.8711,-0.34961 2.58789,-0.61035 0.71582,-0.26025 1.30957,-0.54492 1.78223,-0.85449 0.47168,-0.30909 0.90332,-0.64258 1.29394,-1.00098 h 2.88086 v 30.5 c 0,2.90088 0.19532,5.41748 0.58594,7.55225 0.39063,2.13476 1.0166,3.91015 1.87988,5.32763 0.86231,1.41748 1.97754,2.45996 3.34473,3.12793 1.36719,0.66846 3.04297,1.00196 5.0293,1.00196 1.26953,0 2.51465,-0.21143 3.73535,-0.63575 1.2207,-0.42334 2.38379,-0.99316 3.49121,-1.71045 1.10645,-0.71679 2.13965,-1.53173 3.10059,-2.44433 0.95996,-0.9126 1.78222,-1.89063 2.46582,-2.9336 V 60.62988 39.12061 z"
       id="path55"
       inkscape:connector-curvature="0" /><path
       d="m 990.80176,37.98828 c 0,-1.0415 0.0156,-2.09961 0.0488,-3.17383 0.0322,-1.07422 0.14648,-2.18066 0.34179,-3.32031 l -7.08008,0.39063 v -4.19922 c 2.18067,0 3.95508,-0.0732 5.32227,-0.21973 1.36719,-0.14648 2.46582,-0.34961 3.2959,-0.61035 0.83008,-0.26025 1.47266,-0.54492 1.92871,-0.85449 0.45508,-0.30909 0.87891,-0.64258 1.26953,-1.00098 h 2.88086 c 0.0644,0.74902 0.1377,1.60352 0.21973,2.56348 0.0811,0.96045 0.15429,2.12402 0.21972,3.49121 1.07421,-0.94385 2.25391,-1.82276 3.54011,-2.63672 1.2851,-0.81348 2.6279,-1.52149 4.0283,-2.12402 1.3994,-0.60206 2.8398,-1.07422 4.3213,-1.41602 1.4804,-0.3418 2.9375,-0.5127 4.3701,-0.5127 5.7939,0 10.0254,1.81495 12.6953,5.44434 2.6689,3.62988 4.0039,9.26953 4.0039,16.91895 v 18.65234 c 0,1.33496 -0.017,2.51465 -0.049,3.54004 -0.033,1.02539 -0.1465,2.10791 -0.3418,3.24707 l 6.2988,-0.29297 v 4.10156 h -20.4101 v -2.97851 c 1.5293,0 2.6933,-0.30078 3.4912,-0.90332 0.7968,-0.60205 1.375,-1.44043 1.7334,-2.51465 0.3574,-1.07422 0.5615,-2.35986 0.6103,-3.85742 0.049,-1.49707 0.073,-3.14112 0.073,-4.93164 V 46.82617 c -0.065,-5.76172 -1.0098,-10.09912 -2.8321,-13.01269 -1.8232,-2.91309 -4.7207,-4.37012 -8.6914,-4.37012 -1.2051,0 -2.4092,0.1792 -3.6133,0.53711 -1.205,0.3584 -2.3603,0.82226 -3.4668,1.3916 -1.1074,0.56982 -2.1484,1.24512 -3.125,2.02637 -0.9765,0.78125 -1.8232,1.62793 -2.53905,2.53906 0.0322,0.58594 0.0488,1.21289 0.0488,1.87988 0,0.66748 0,1.34278 0,2.02637 l -0.0977,25.53711 c 0,1.33496 -0.0166,2.51465 -0.0488,3.54004 -0.0332,1.02539 -0.14648,2.10791 -0.34179,3.24707 l 6.29884,-0.29297 v 4.10156 h -20.41017 v -2.97851 c 1.5293,0 2.69336,-0.30078 3.49121,-0.90332 0.79687,-0.60205 1.36719,-1.44043 1.70898,-2.51465 0.3418,-1.07422 0.53711,-2.35986 0.58594,-3.85742 0.0488,-1.49707 0.0889,-3.14112 0.12207,-4.93164 l 0.0977,-22.80274 z"
       id="path57"
       inkscape:connector-curvature="0" /><path
       d="m 1089.5322,23.97461 c -0.8467,0.13037 -1.5957,0.39893 -2.2461,0.80566 -0.6513,0.40723 -1.2207,0.91993 -1.709,1.53809 -0.4882,0.61865 -0.8876,1.29395 -1.1962,2.02637 -0.3096,0.73242 -0.5459,1.47314 -0.708,2.22168 1.6601,1.53027 2.9697,3.32031 3.9306,5.37109 0.96,2.05078 1.4404,4.23193 1.4404,6.54297 0,2.83203 -0.5781,5.42822 -1.7334,7.78809 -1.1562,2.36035 -2.7099,4.39453 -4.663,6.10351 -1.9532,1.70899 -4.208,3.03565 -6.7627,3.97949 -2.5557,0.94434 -5.2334,1.41602 -8.0323,1.41602 -1.2373,0 -2.3359,-0.0811 -3.2959,-0.24414 -0.9609,-0.1626 -2.0918,-0.24414 -3.3935,-0.24414 -1.2373,0 -2.3682,0.16308 -3.3936,0.48828 -1.0254,0.32568 -1.8886,0.77344 -2.5879,1.34277 -0.7002,0.56983 -1.164,1.12305 -1.3916,1.66016 -0.2285,0.53711 -0.3418,1.00097 -0.3418,1.3916 0,0.39062 0.064,0.79785 0.1954,1.2207 0.2275,0.78125 0.7568,1.41602 1.5869,1.9043 0.83,0.48828 1.9121,0.87109 3.247,1.14746 1.334,0.27686 2.9209,0.48047 4.7608,0.61035 1.8388,0.13037 3.914,0.24414 6.2256,0.3418 3.8408,0.16309 7.2832,0.5293 10.3271,1.09863 3.043,0.56983 5.6231,1.43262 7.7393,2.58789 2.1152,1.15528 3.7353,2.65283 4.8584,4.49219 1.123,1.83887 1.6845,4.10938 1.6845,6.81152 0,2.70166 -0.7246,5.08594 -2.1728,7.15332 -1.4492,2.0669 -3.3369,3.8086 -5.6641,5.22461 -2.3281,1.41602 -4.9482,2.49024 -7.8613,3.22266 -2.9141,0.73242 -5.8516,1.09863 -8.8135,1.09863 -4.4922,0 -8.3252,-0.39062 -11.499,-1.17187 -3.1738,-0.78125 -5.7539,-1.81494 -7.7393,-3.10059 -1.9863,-1.28613 -3.4345,-2.73437 -4.3457,-4.3457 -0.9121,-1.61133 -1.3671,-3.24707 -1.3671,-4.90723 0,-1.53027 0.2929,-2.92969 0.8789,-4.19922 0.5859,-1.26953 1.3261,-2.40918 2.2216,-3.41797 0.8946,-1.00927 1.8877,-1.87988 2.9786,-2.6123 1.0898,-0.73242 2.1396,-1.32666 3.1494,-1.78223 -2.1485,-0.65136 -3.8418,-1.58691 -5.0782,-2.80761 -1.2373,-1.22071 -1.8554,-2.90528 -1.8554,-5.05372 0,-1.17187 0.2441,-2.31933 0.7324,-3.44238 0.4883,-1.12304 1.1719,-2.15625 2.0508,-3.10058 0.8789,-0.94385 1.9287,-1.74121 3.1494,-2.39258 1.2207,-0.65088 2.5635,-1.10645 4.0283,-1.36719 -1.5303,-0.71582 -2.9141,-1.58691 -4.1504,-2.6123 -1.2373,-1.02539 -2.2949,-2.18067 -3.1738,-3.4668 -0.8789,-1.28565 -1.5547,-2.69336 -2.0264,-4.22363 -0.4726,-1.52979 -0.708,-3.17383 -0.708,-4.93164 0,-2.99463 0.6104,-5.71289 1.8311,-8.1543 1.2207,-2.44141 2.8154,-4.52442 4.7851,-6.25 1.9688,-1.7251 4.2149,-3.05176 6.7383,-3.97949 2.5225,-0.92774 5.0859,-1.39161 7.6904,-1.39161 2.2461,0 4.459,0.31739 6.6407,0.95215 2.1806,0.63477 4.1992,1.5708 6.0547,2.80762 0.4882,-1.39941 1.1552,-2.70166 2.0019,-3.90625 0.8457,-1.2041 1.7979,-2.23779 2.8565,-3.10059 1.0576,-0.8623 2.205,-1.53808 3.4423,-2.02636 1.2364,-0.48828 2.5225,-0.73242 3.8575,-0.73242 1.6923,0 3.0029,0.43945 3.9306,1.31835 0.9278,0.87891 1.3916,2.09961 1.3916,3.66211 0,0.39063 -0.082,0.83008 -0.2441,1.31836 -0.1631,0.48829 -0.4151,0.94434 -0.7569,1.36719 -0.3418,0.42334 -0.79,0.78125 -1.3427,1.07422 -0.5537,0.29297 -1.2207,0.42334 -2.002,0.39063 -1.1396,-0.0322 -2.0674,-0.38233 -2.7832,-1.04981 -0.7168,-0.66699 -1.1719,-1.48926 -1.3672,-2.46582 z m -20.9961,55.27344 c -1.8554,-0.0654 -3.6465,-0.14649 -5.3711,-0.24414 -1.7255,-0.0977 -3.3691,-0.27686 -4.9316,-0.53711 -1.8555,1.20068 -3.2803,2.6626 -4.2725,4.38379 -0.9931,1.72119 -1.4892,3.55615 -1.4892,5.50488 0,1.65625 0.3984,3.1416 1.1963,4.45752 0.7968,1.31445 1.9365,2.44287 3.4179,3.38525 1.4805,0.94141 3.2715,1.66407 5.3711,2.16846 2.0996,0.50244 4.4346,0.75439 7.0069,0.75439 2.8642,0 5.4277,-0.29199 7.6904,-0.87646 2.2617,-0.58447 4.1748,-1.36426 5.7373,-2.33789 1.5625,-0.9751 2.75,-2.10352 3.5645,-3.38574 0.8134,-1.28321 1.2207,-2.63916 1.2207,-4.06739 0,-1.85107 -0.4805,-3.35302 -1.4405,-4.50488 -0.9609,-1.15381 -2.2949,-2.06299 -4.0039,-2.72754 -1.709,-0.66601 -3.7275,-1.13721 -6.0547,-1.4126 -2.3281,-0.27685 -4.875,-0.46289 -7.6416,-0.56054 z m -0.8789,-51.36719 c -1.791,0 -3.3857,0.3584 -4.7851,1.07422 -1.4004,0.71631 -2.5801,1.70898 -3.5401,2.97851 -0.9609,1.26954 -1.6933,2.76709 -2.1972,4.49219 -0.5049,1.72559 -0.7569,3.58106 -0.7569,5.56641 0,2.40918 0.2598,4.59814 0.7813,6.56738 0.5205,1.96973 1.2851,3.67041 2.2949,5.10254 1.0088,1.43262 2.2461,2.53906 3.7109,3.32031 1.4649,0.78125 3.125,1.17188 4.9805,1.17188 1.8555,0 3.4746,-0.3418 4.8584,-1.02539 1.3828,-0.6836 2.5391,-1.63575 3.4668,-2.85645 0.9277,-1.2207 1.627,-2.66894 2.0996,-4.3457 0.4717,-1.67627 0.708,-3.49121 0.708,-5.44434 0,-2.18066 -0.2441,-4.28027 -0.7324,-6.29883 -0.4883,-2.01806 -1.2207,-3.78418 -2.1973,-5.29785 -0.9765,-1.51367 -2.1894,-2.72607 -3.6377,-3.63769 -1.4492,-0.91114 -3.1338,-1.36719 -5.0537,-1.36719 z"
       id="path59"
       inkscape:connector-curvature="0" /></g><g
     id="g3187"><path
       d="m 1131.8076,76.75781 h -5.1758 l -0.5859,-21.28906 h 3.8574 c 0.1953,2.9624 0.8301,5.55859 1.9043,7.78809 1.0742,2.22998 2.4815,4.09375 4.2237,5.59082 1.7412,1.49756 3.7675,2.6289 6.0791,3.39355 2.3105,0.76514 4.7851,1.14746 7.4218,1.14746 1.9532,0 3.7998,-0.26855 5.542,-0.80566 1.7412,-0.53711 3.2715,-1.33447 4.5899,-2.39258 1.3183,-1.05762 2.3593,-2.36816 3.125,-3.93066 0.7646,-1.5625 1.1474,-3.35254 1.1474,-5.3711 0,-2.4414 -0.5371,-4.54101 -1.6113,-6.29883 -1.0742,-1.75781 -2.499,-3.31201 -4.2725,-4.66308 -1.7744,-1.35059 -3.7929,-2.57129 -6.0547,-3.66211 -2.2626,-1.09033 -4.5654,-2.18067 -6.9091,-3.27149 -2.3438,-1.09033 -4.6475,-2.24609 -6.9092,-3.46679 -2.2627,-1.22071 -4.2813,-2.63672 -6.0547,-4.24805 -1.7744,-1.61133 -3.1982,-3.49121 -4.2725,-5.63965 -1.0742,-2.14844 -1.6113,-4.70361 -1.6113,-7.66601 0,-1.13916 0.1299,-2.35987 0.3906,-3.66211 0.2598,-1.30176 0.6914,-2.60401 1.294,-3.90625 0.6015,-1.30176 1.3994,-2.56348 2.3926,-3.78418 0.9921,-1.22071 2.2373,-2.29492 3.7353,-3.22266 1.4971,-0.92773 3.2715,-1.66797 5.3223,-2.22168 2.0508,-0.55322 4.4267,-0.83008 7.1289,-0.83008 1.3017,0 2.6855,0.0815 4.1504,0.24414 1.4648,0.16309 2.9541,0.43946 4.4677,0.83008 1.5137,0.39063 3.0186,0.91992 4.5166,1.58692 1.4971,0.66748 2.9297,1.50586 4.2969,2.51464 l -0.3906,-4.29687 h 5.0781 v 21.92383 h -3.6133 c -0.163,-2.41455 -0.6269,-4.75635 -1.3916,-7.02442 -0.7656,-2.26806 -1.8798,-4.27539 -3.3447,-6.02197 -1.4648,-1.7456 -3.2715,-3.14941 -5.4199,-4.20996 -2.1484,-1.06006 -4.6875,-1.59131 -7.6172,-1.59131 -2.084,0 -3.9228,0.31836 -5.5176,0.95361 -1.5957,0.63624 -2.9297,1.49219 -4.0039,2.56788 -1.0742,1.07666 -1.8887,2.32421 -2.4414,3.74267 -0.5537,1.41895 -0.8301,2.91065 -0.8301,4.4751 0,2.28271 0.545,4.26416 1.6358,5.94336 1.0898,1.68017 2.5303,3.17139 4.3213,4.47607 1.79,1.30469 3.8242,2.49512 6.1035,3.5708 2.2783,1.07618 4.6055,2.15967 6.9824,3.25 2.376,1.09082 4.7031,2.2627 6.9824,3.51563 2.2783,1.25342 4.3125,2.70215 6.1035,4.3457 1.7901,1.64404 3.2305,3.55664 4.3213,5.73731 1.0899,2.18115 1.6358,4.75293 1.6358,7.71484 0,2.76709 -0.5215,5.31445 -1.5625,7.6416 -1.042,2.32764 -2.5557,4.32959 -4.541,6.00586 -1.9864,1.67676 -4.4356,2.98682 -7.3487,3.93067 -2.914,0.94384 -6.2256,1.41601 -9.9365,1.41601 -1.498,0 -3.0361,-0.10596 -4.6143,-0.31738 -1.5791,-0.21192 -3.1416,-0.5293 -4.6875,-0.95215 -1.5468,-0.42285 -3.0439,-0.95996 -4.4921,-1.61133 -1.4493,-0.65088 -2.792,-1.39941 -4.0284,-2.24609 l 0.4883,4.29687 z"
       id="path61"
       inkscape:connector-curvature="0" /><path
       d="m 1185.9092,37.98828 c 0,-1.0415 0.016,-2.09961 0.049,-3.17383 0.032,-1.07422 0.1465,-2.18066 0.3418,-3.32031 l -7.0801,0.39063 v -4.19922 c 2.1807,0 3.9551,-0.0732 5.3223,-0.21973 1.3672,-0.14648 2.4658,-0.34961 3.2959,-0.61035 0.8301,-0.26025 1.4726,-0.54492 1.9287,-0.85449 0.4551,-0.30909 0.8623,-0.64258 1.2207,-1.00098 h 2.9297 c 0.064,0.65137 0.1299,1.41602 0.1953,2.29492 0.064,0.87891 0.1299,1.9043 0.1953,3.07617 1.0088,-0.8789 2.124,-1.69238 3.3447,-2.4414 1.2207,-0.74854 2.5059,-1.3833 3.8575,-1.9043 1.3506,-0.52051 2.7256,-0.92773 4.1259,-1.2207 1.3995,-0.29297 2.7989,-0.43946 4.1993,-0.43946 2.8964,0 5.6718,0.56983 8.3252,1.70899 2.6523,1.13965 4.9882,2.77539 7.0068,4.90723 2.0176,2.13232 3.6289,4.73632 4.834,7.8125 1.2041,3.07617 1.8066,6.55127 1.8066,10.4248 0,2.83203 -0.3174,5.50147 -0.9521,8.00781 -0.6348,2.50684 -1.5225,4.80957 -2.6612,6.90918 -1.1396,2.09961 -2.499,3.97949 -4.0771,5.63965 -1.5791,1.66016 -3.3125,3.06836 -5.2002,4.22363 -1.8887,1.15577 -3.8984,2.04248 -6.0303,2.66114 -2.1328,0.61816 -4.3213,0.92773 -6.5674,0.92773 -4.623,0 -8.6103,-1.09082 -11.9629,-3.27148 l -0.049,16.55273 c 0,1.33447 -0.017,2.51465 -0.049,3.54004 -0.033,1.02539 -0.1465,2.10742 -0.3418,3.24707 l 6.2988,-0.29297 v 4.10156 h -20.4101 v -2.97851 c 1.5293,0 2.6933,-0.30127 3.4912,-0.90332 0.7969,-0.60254 1.3672,-1.44043 1.709,-2.51465 0.3418,-1.07422 0.5371,-2.36035 0.5859,-3.85742 0.049,-1.49756 0.089,-3.1416 0.1221,-4.93164 l 0.1953,-48.29102 z m 20.3613,-8.74023 c -1.1719,0 -2.3115,0.15478 -3.418,0.46484 -1.1074,0.30957 -2.165,0.7168 -3.1738,1.22217 -1.0098,0.50488 -1.9619,1.1001 -2.8564,1.78369 -0.8955,0.68408 -1.6846,1.40137 -2.3682,2.15039 0,0.26123 0.01,0.56348 0.024,0.90527 0.016,0.3418 0.024,0.91993 0.024,1.73487 0,0.81494 0,1.96387 0,3.44629 0,1.48291 -0.01,3.47021 -0.024,5.96386 -0.017,2.49317 -0.033,5.59668 -0.049,9.31153 -0.017,3.71533 -0.024,8.2124 -0.024,13.49121 1.6601,1.23877 3.4824,2.20019 5.4687,2.88428 1.9854,0.68457 4.0684,1.02636 6.25,1.02636 2.376,0 4.5078,-0.56982 6.3965,-1.71045 1.8877,-1.14062 3.499,-2.729 4.834,-4.76611 1.334,-2.03711 2.3594,-4.44873 3.0762,-7.23486 0.7158,-2.78662 1.0742,-5.84131 1.0742,-9.16553 0,-2.70459 -0.2852,-5.34424 -0.8545,-7.91846 -0.5703,-2.57422 -1.4649,-4.87207 -2.6856,-6.89209 -1.2207,-2.0205 -2.7919,-3.6416 -4.7119,-4.86377 -1.9209,-1.22216 -4.248,-1.83349 -6.9824,-1.83349 z"
       id="path63"
       inkscape:connector-curvature="0" /><path
       d="m 1269.1611,29.83398 c -1.2695,-0.0322 -2.5556,0.20362 -3.8574,0.70801 -1.3027,0.50489 -2.5801,1.24512 -3.833,2.22168 -1.2539,0.97656 -2.4336,2.14844 -3.54,3.51563 -1.1075,1.36718 -2.0996,2.88086 -2.9786,4.54101 l 0.098,24.56055 c 0,1.33496 -0.017,2.51465 -0.049,3.54004 -0.033,1.02539 -0.1465,2.10791 -0.3418,3.24707 l 6.2988,-0.29297 v 4.10156 h -20.5078 v -2.97851 c 1.5293,0 2.6934,-0.30078 3.4912,-0.90332 0.7969,-0.60205 1.375,-1.44043 1.7334,-2.51465 0.3574,-1.07422 0.5615,-2.35986 0.6104,-3.85742 0.049,-1.49707 0.073,-3.14112 0.073,-4.93164 V 37.93945 c 0,-1.0415 0.016,-2.0913 0.049,-3.14941 0.032,-1.05762 0.1465,-2.15625 0.3418,-3.2959 l -7.0801,0.29297 v -4.10156 h 3.0762 c 1.4317,0 2.6201,-0.0732 3.5645,-0.21973 0.9433,-0.14648 1.7334,-0.34961 2.3681,-0.61035 0.6348,-0.26025 1.1631,-0.54492 1.5869,-0.85449 0.4229,-0.30909 0.8301,-0.64258 1.2208,-1.00098 h 2.8808 c 0.098,1.04199 0.1865,2.33594 0.2686,3.88184 0.081,1.54638 0.1543,3.54004 0.2197,5.98144 0.748,-1.23681 1.709,-2.48193 2.8809,-3.73535 1.1718,-1.25293 2.4902,-2.37598 3.955,-3.36914 1.4649,-0.99268 3.043,-1.80664 4.7364,-2.44141 1.6923,-0.63476 3.4336,-0.95215 5.2246,-0.95215 0.9111,0 1.7978,0.12207 2.6611,0.36622 0.8623,0.24414 1.6113,0.62695 2.2461,1.14746 0.6348,0.52099 1.1475,1.17187 1.5381,1.95312 0.3906,0.78125 0.5859,1.72559 0.5859,2.83203 0,0.45606 -0.09,0.96045 -0.2685,1.51367 -0.1797,0.55372 -0.4727,1.07422 -0.8789,1.5625 -0.4073,0.48829 -0.92,0.89551 -1.5381,1.22071 -0.6192,0.32568 -1.3838,0.48828 -2.295,0.48828 -0.749,0 -1.4248,-0.1626 -2.0263,-0.48828 -0.6026,-0.3252 -1.1074,-0.74024 -1.5137,-1.24512 -0.4072,-0.50439 -0.7002,-1.09033 -0.8789,-1.75781 -0.1797,-0.66699 -0.2197,-1.375 -0.1221,-2.12403 z"
       id="path65"
       inkscape:connector-curvature="0" /><path
       d="m 1285.0791,36.37695 c 0,-1.66015 0.4883,-3.22265 1.4648,-4.6875 0.9766,-1.46484 2.3438,-2.74218 4.1016,-3.833 1.7578,-1.09034 3.8486,-1.94483 6.2744,-2.56348 2.4248,-0.61816 5.0694,-0.92774 7.9346,-0.92774 5.5986,0 9.7246,1.48145 12.3779,4.44336 2.6524,2.96241 3.9629,7.66602 3.9307,14.11133 l -0.098,22.46094 c 0,1.04199 -0.024,2.0918 -0.073,3.14941 -0.049,1.05811 -0.1553,2.27051 -0.3174,3.6377 l 7.0801,-0.39063 v 4.19922 h -14.3067 c -0.1953,-1.13916 -0.3418,-2.13183 -0.4394,-2.97851 -0.098,-0.84619 -0.1797,-1.74121 -0.2442,-2.68555 -2.246,2.24609 -4.6962,4.02051 -7.3486,5.32227 -2.6533,1.30175 -5.4609,1.95312 -8.4228,1.95312 -2.5069,0 -4.6963,-0.30127 -6.5674,-0.90332 -1.8721,-0.60254 -3.4268,-1.44043 -4.6631,-2.51465 -1.2373,-1.07422 -2.165,-2.33545 -2.7832,-3.78418 -0.6191,-1.44824 -0.9277,-3.00293 -0.9277,-4.66308 0,-2.05078 0.4472,-3.92237 1.3427,-5.61524 0.8946,-1.69238 2.0996,-3.19824 3.6133,-4.5166 1.5137,-1.31836 3.2793,-2.45752 5.2979,-3.41797 2.0175,-0.95996 4.1582,-1.74951 6.4209,-2.36816 2.2617,-0.61817 4.5732,-1.06592 6.9336,-1.34278 2.3593,-0.27636 4.663,-0.39843 6.9091,-0.36621 v -6.25 c 0,-1.72509 -0.098,-3.40136 -0.2929,-5.02929 -0.1953,-1.62744 -0.627,-3.1084 -1.294,-4.44336 -0.6679,-1.33448 -1.709,-2.39258 -3.125,-3.17383 -1.416,-0.78125 -3.0517,-1.17188 -4.9072,-1.17188 -1.0742,0 -2.0996,0.0898 -3.0762,0.26856 -0.9765,0.1792 -1.9375,0.48047 -2.8808,0.90332 -0.9444,0.42334 -1.7989,0.97656 -2.5635,1.66016 -0.7656,0.68359 -1.3916,1.49755 -1.8799,2.4414 0.4883,0.55371 0.8213,1.16406 1.001,1.83106 0.1787,0.66748 0.2685,1.31054 0.2685,1.92871 0,0.39062 -0.082,0.83838 -0.2441,1.34277 -0.1631,0.50488 -0.415,0.97656 -0.7568,1.41602 -0.3418,0.43945 -0.7813,0.79785 -1.3184,1.07422 -0.5371,0.27685 -1.2617,0.41503 -2.1729,0.41503 -1.3027,0 -2.3359,-0.47998 -3.1005,-1.44043 -0.7657,-0.95996 -1.1475,-2.12402 -1.1475,-3.49121 z m 27.4414,15.13672 c -1.5303,0.0654 -3.1172,0.20362 -4.7607,0.41504 -1.6446,0.21192 -3.2559,0.53711 -4.834,0.97656 -1.5791,0.43946 -3.0684,1.00098 -4.4678,1.68457 -1.4004,0.6836 -2.6211,1.49756 -3.6621,2.44141 -1.042,0.94434 -1.8555,2.03467 -2.4414,3.27148 -0.5859,1.23731 -0.8467,2.63672 -0.7813,4.19922 0.032,1.23731 0.2686,2.31934 0.708,3.24707 0.4395,0.92774 1.0088,1.69288 1.709,2.29493 0.6993,0.60254 1.5049,1.0581 2.417,1.36718 0.9112,0.30957 1.8877,0.46387 2.9297,0.46387 1.334,0 2.5879,-0.12988 3.7598,-0.39062 1.1719,-0.26026 2.2861,-0.64258 3.3447,-1.14747 1.0576,-0.50439 2.083,-1.11474 3.0762,-1.83105 0.9922,-0.71582 1.9931,-1.5459 3.0029,-2.49023 V 51.51367 z"
       id="path67"
       inkscape:connector-curvature="0" /><path
       d="m 1371.1631,33.44727 c -0.4561,-1.17188 -1.1231,-2.10743 -2.002,-2.80762 -0.8789,-0.69971 -1.831,-1.24512 -2.8564,-1.63574 -1.0254,-0.39063 -2.0508,-0.64258 -3.0762,-0.75684 -1.0254,-0.11377 -1.8799,-0.1709 -2.5635,-0.1709 -2.2793,0 -4.4033,0.46387 -6.372,1.3916 -1.9698,0.92774 -3.6709,2.28711 -5.1026,4.07715 -1.4326,1.79053 -2.5634,4.02051 -3.3935,6.68946 -0.8301,2.66943 -1.2451,5.72949 -1.2451,9.17968 0,3.32032 0.415,6.38867 1.2451,9.2041 0.8301,2.81592 1.9931,5.24122 3.4912,7.2754 1.4971,2.03466 3.3037,3.62158 5.4199,4.76074 2.1152,1.13965 4.459,1.70898 7.0313,1.70898 1.5625,0 3.1084,-0.21972 4.6386,-0.65918 1.5293,-0.43945 2.9785,-1.0498 4.3457,-1.83105 1.3672,-0.78125 2.628,-1.69239 3.7842,-2.73438 1.1553,-1.0415 2.1397,-2.16455 2.9541,-3.36914 l 2.5879,2.00195 c -1.335,2.0835 -2.8564,3.86573 -4.5654,5.34668 -1.709,1.48145 -3.5,2.70215 -5.3711,3.66211 -1.8721,0.96045 -3.7598,1.66797 -5.6641,2.12403 -1.9043,0.45556 -3.7031,0.68359 -5.3955,0.68359 -3.3857,0 -6.5762,-0.57812 -9.5703,-1.7334 -2.9951,-1.15527 -5.6152,-2.83203 -7.8613,-5.02929 -2.2461,-2.19727 -4.0205,-4.89063 -5.3223,-8.08106 -1.3027,-3.18994 -1.9531,-6.81933 -1.9531,-10.88867 0,-2.31104 0.2842,-4.58984 0.8545,-6.83594 0.5693,-2.24609 1.3916,-4.38623 2.4658,-6.4209 1.0742,-2.03418 2.376,-3.92236 3.9062,-5.66406 1.5293,-1.74121 3.2627,-3.24707 5.2002,-4.5166 1.9366,-1.26953 4.0528,-2.26221 6.3477,-2.97852 2.2949,-0.71582 4.7275,-1.07422 7.2998,-1.07422 2.7666,0 5.2891,0.3418 7.5684,1.0254 2.2783,0.68359 4.2314,1.59521 5.8593,2.73437 1.627,1.13965 2.8809,2.44971 3.7598,3.93066 0.8789,1.48145 1.3184,3.03565 1.3184,4.66309 0,1.43262 -0.3995,2.66113 -1.1963,3.68652 -0.7979,1.02539 -1.9453,1.55469 -3.4424,1.58692 -0.8789,0.0327 -1.6113,-0.10547 -2.1973,-0.41504 -0.5859,-0.30908 -1.0586,-0.69141 -1.416,-1.14746 -0.3584,-0.45557 -0.6191,-0.95215 -0.7812,-1.48926 -0.1631,-0.53711 -0.2442,-1.01709 -0.2442,-1.44043 0,-0.65088 0.1055,-1.33447 0.3174,-2.05078 0.2109,-0.71582 0.6103,-1.3833 1.1963,-2.00195 z"
       id="path69"
       inkscape:connector-curvature="0" /><path
       d="m 1392.8428,13.47656 c 0,-1.0415 0.01,-2.05078 0.024,-3.02734 0.016,-0.97656 0.1055,-2.13184 0.2685,-3.4668 l -7.08,0.39063 V 3.17383 c 2.1806,0 3.9951,-0.0732 5.4443,-0.21973 1.4482,-0.14648 2.6279,-0.34961 3.54,-0.61035 0.9112,-0.26025 1.627,-0.54492 2.1485,-0.85449 0.5205,-0.30908 0.9765,-0.64258 1.3672,-1.00098 h 2.8808 v 30.46875 c 1.1065,-0.91113 2.3106,-1.77392 3.6133,-2.58789 1.3018,-0.81348 2.6611,-1.51367 4.0772,-2.09961 1.416,-0.58594 2.8642,-1.0498 4.3457,-1.3916 1.4804,-0.3418 2.9375,-0.5127 4.3701,-0.5127 2.8965,0 5.3867,0.44776 7.4707,1.34278 2.083,0.89551 3.7842,2.26269 5.1025,4.10156 1.3184,1.83936 2.2949,4.16699 2.9297,6.98242 0.6348,2.81592 0.9678,6.12793 1.001,9.93653 l 0.098,18.65234 c 0,1.33496 -0.017,2.51465 -0.049,3.54004 -0.033,1.02539 -0.1465,2.10791 -0.3418,3.24707 l 6.2988,-0.29297 v 4.10156 h -20.4101 v -2.97851 c 1.5293,0 2.6933,-0.30078 3.4912,-0.90332 0.7969,-0.60205 1.375,-1.44043 1.7334,-2.51465 0.3574,-1.07422 0.5615,-2.35986 0.6103,-3.85742 0.049,-1.49707 0.073,-3.14112 0.073,-4.93164 V 46.82617 c 0,-5.76172 -0.9121,-10.0664 -2.7344,-12.91504 -1.8232,-2.84814 -4.7207,-4.27246 -8.6914,-4.27246 -1.1396,0 -2.3437,0.16309 -3.6133,0.48828 -1.2695,0.32569 -2.4658,0.76514 -3.5888,1.31836 -1.1231,0.55371 -2.1817,1.20459 -3.1739,1.95313 -0.9931,0.74902 -1.8642,1.5625 -2.6123,2.4414 v 29.54102 c 0,1.33496 -0.033,2.51465 -0.098,3.54004 -0.065,1.02539 -0.1953,2.10791 -0.3907,3.24707 l 6.2989,-0.29297 v 4.10156 h -20.4102 v -2.97851 c 1.5293,0 2.7012,-0.30078 3.5156,-0.90332 0.8135,-0.60205 1.4073,-1.44043 1.7823,-2.51465 0.374,-1.07422 0.5859,-2.35986 0.6347,-3.85742 0.049,-1.49707 0.073,-3.14112 0.073,-4.93164 V 13.47656 z"
       id="path71"
       inkscape:connector-curvature="0" /><path
       d="m 1443.4775,25.97656 h 21.1914 v 2.97852 c -1.498,0.0654 -2.6367,0.36621 -3.4179,0.90332 -0.7813,0.53711 -1.294,1.27783 -1.5381,2.22168 -0.2441,0.94433 -0.2529,2.06738 -0.024,3.36914 0.2275,1.30225 0.6181,2.75098 1.1719,4.3457 l 7.8613,23.63281 c 7.6816,-22.78613 11.8652,-35.27001 12.5488,-37.45117 h 4.1016 l 13.33,38.1836 c 6.836,-19.82422 10.4893,-30.33008 10.962,-31.51856 0.4716,-1.18799 1.0166,-2.15625 1.6357,-2.90527 l -5.8105,0.3418 v -4.10157 h 17.3828 v 2.97852 c -1.7256,0.0977 -3.1416,0.3501 -4.2481,0.75683 -1.1074,0.40723 -2.0185,0.94434 -2.7344,1.61133 -0.7167,0.66748 -1.3105,1.46485 -1.7822,2.39258 -0.4726,0.92774 -0.9199,1.99414 -1.3428,3.19824 l -14.4042,39.35547 h -4.004 l -13.0859,-37.8418 -12.9883,37.8418 h -3.8086 l -13.0859,-38.3789 c -0.749,-2.11573 -1.3272,-3.8003 -1.7334,-5.05372 -0.4072,-1.25293 -0.6924,-2.2705 -0.8545,-3.05175 l -5.3223,0.29297 v -4.10157 z"
       id="path73"
       inkscape:connector-curvature="0" /><path
       d="m 1533.2725,37.98828 c 0,-1.0415 0.024,-2.05078 0.073,-3.02734 0.049,-0.97656 0.1543,-2.13184 0.3174,-3.4668 l -7.0801,0.39063 v -4.19922 c 2.1807,0 3.9873,-0.0732 5.4199,-0.21973 1.4317,-0.14648 2.6035,-0.34961 3.5157,-0.61035 0.9111,-0.26025 1.6191,-0.54492 2.124,-0.85449 0.5039,-0.30909 0.9521,-0.64258 1.3428,-1.00098 h 2.8808 v 40.38086 c 0,1.33496 -0.017,2.51465 -0.049,3.54004 -0.033,1.02539 -0.1465,2.10791 -0.3418,3.24707 l 6.2988,-0.29297 v 4.10156 h -20.4101 v -2.97851 c 1.5293,0 2.6933,-0.30078 3.4912,-0.90332 0.7968,-0.60205 1.375,-1.44043 1.7334,-2.51465 0.3574,-1.07422 0.5615,-2.35986 0.6103,-3.85742 0.049,-1.49707 0.073,-3.14112 0.073,-4.93164 V 37.98828 z m 9.5214,-28.80859 c 0,0.81396 -0.1552,1.5791 -0.4638,2.29492 -0.3096,0.71631 -0.708,1.34277 -1.1963,1.87988 -0.4883,0.53711 -1.0586,0.95215 -1.709,1.24512 -0.6514,0.29297 -1.335,0.43945 -2.0508,0.43945 -0.7168,0 -1.4004,-0.14648 -2.0508,-0.43945 -0.6513,-0.29297 -1.2295,-0.70801 -1.7334,-1.24512 -0.5048,-0.53711 -0.8955,-1.16357 -1.1718,-1.87988 -0.2774,-0.71582 -0.4151,-1.48096 -0.4151,-2.29492 0,-0.84619 0.1465,-1.63574 0.4395,-2.36817 0.293,-0.73242 0.6914,-1.375 1.1963,-1.92871 0.5039,-0.55322 1.082,-0.98437 1.7334,-1.29394 0.6504,-0.30908 1.3506,-0.46387 2.0996,-0.46387 0.748,0 1.4404,0.15479 2.0752,0.46387 0.6347,0.30957 1.1963,0.74072 1.6845,1.29394 0.4883,0.55371 0.8702,1.19629 1.1475,1.92871 0.2764,0.73243 0.415,1.52198 0.415,2.36817 z"
       id="path75"
       inkscape:connector-curvature="0" /><path
       d="m 1574.1904,73.63281 c 1.2696,0 2.5469,-0.15429 3.833,-0.4624 1.2852,-0.3081 2.4571,-0.78711 3.5157,-1.43652 1.0576,-0.64942 1.9199,-1.46924 2.5879,-2.45996 0.6669,-0.99024 1.0009,-2.16651 1.0009,-3.52979 0,-1.59082 -0.415,-2.94678 -1.2451,-4.06641 -0.8301,-1.12011 -1.9209,-2.10986 -3.2715,-2.97021 -1.3515,-0.86084 -2.8974,-1.63135 -4.6386,-2.31348 -1.7422,-0.68213 -3.5157,-1.38086 -5.3223,-2.09716 -1.8066,-0.71582 -3.5733,-1.50538 -5.2979,-2.36817 -1.7255,-0.8623 -3.2636,-1.87988 -4.6142,-3.05176 -1.3516,-1.17187 -2.4414,-2.57129 -3.2715,-4.19922 -0.8301,-1.62744 -1.2451,-3.56445 -1.2451,-5.81054 0,-1.39942 0.2597,-2.9375 0.7812,-4.61426 0.5205,-1.67627 1.4317,-3.24707 2.7344,-4.71191 1.3018,-1.46485 3.0518,-2.69336 5.249,-3.68653 2.1973,-0.99267 4.9717,-1.48926 8.3252,-1.48926 0.9112,0 1.8799,0.0654 2.9053,0.19532 1.0254,0.13037 2.0752,0.36621 3.1494,0.70801 1.0742,0.34179 2.1484,0.78955 3.2227,1.34277 1.0742,0.55371 2.1318,1.2373 3.1738,2.05078 l -0.2441,-3.80859 h 4.1992 v 17.52929 h -3.125 c -0.1309,-1.72509 -0.4639,-3.43408 -1.001,-5.12695 -0.5371,-1.69238 -1.3184,-3.21436 -2.3438,-4.56543 -1.0253,-1.35059 -2.3193,-2.44922 -3.8818,-3.2959 -1.5625,-0.84619 -3.418,-1.26953 -5.5664,-1.26953 -1.5625,0 -2.9463,0.20361 -4.1504,0.61035 -1.2051,0.40723 -2.2217,0.96045 -3.0517,1.66016 -0.8301,0.70019 -1.4571,1.50586 -1.8799,2.41699 -0.4239,0.91162 -0.6348,1.87207 -0.6348,2.88086 0,1.62793 0.415,3.02734 1.2451,4.19922 0.8301,1.17187 1.9287,2.21387 3.2959,3.125 1.3672,0.91162 2.9297,1.7334 4.6875,2.46582 1.7578,0.73242 3.5479,1.48144 5.3711,2.24609 1.8223,0.76514 3.6133,1.5791 5.3711,2.44141 1.7578,0.86279 3.3203,1.87988 4.6875,3.05176 1.3672,1.17187 2.4658,2.53906 3.2959,4.10156 0.8301,1.5625 1.2451,3.41797 1.2451,5.56641 0,2.50683 -0.5049,4.6875 -1.5136,6.54296 -1.0098,1.85547 -2.336,3.38575 -3.9795,4.58985 -1.6446,1.20459 -3.5,2.09961 -5.5664,2.68555 -2.0674,0.58593 -4.1592,0.8789 -6.2745,0.8789 -3.3857,0 -6.3642,-0.44775 -8.9355,-1.34277 -2.5723,-0.89502 -4.6875,-1.91211 -6.3477,-3.05176 l 0.3418,3.4668 h -4.1992 l -0.5859,-17.1875 h 3.0762 c 0.1298,2.07666 0.6103,3.98242 1.4404,5.71728 0.8301,1.73584 1.9199,3.22803 3.2715,4.47705 1.3506,1.24903 2.8964,2.22266 4.6386,2.91992 1.7412,0.69727 3.5889,1.0459 5.542,1.0459 z"
       id="path77"
       inkscape:connector-curvature="0" /><path
       d="m 1620.4795,73.63281 c 1.2695,0 2.5469,-0.15429 3.833,-0.4624 1.2852,-0.3081 2.457,-0.78711 3.5156,-1.43652 1.0576,-0.64942 1.9199,-1.46924 2.5879,-2.45996 0.667,-0.99024 1.001,-2.16651 1.001,-3.52979 0,-1.59082 -0.415,-2.94678 -1.2451,-4.06641 -0.8301,-1.12011 -1.9209,-2.10986 -3.2715,-2.97021 -1.3516,-0.86084 -2.8975,-1.63135 -4.6387,-2.31348 -1.7422,-0.68213 -3.5156,-1.38086 -5.3222,-2.09716 -1.8067,-0.71582 -3.5733,-1.50538 -5.2979,-2.36817 -1.7256,-0.8623 -3.2637,-1.87988 -4.6143,-3.05176 -1.3515,-1.17187 -2.4414,-2.57129 -3.2714,-4.19922 -0.8301,-1.62744 -1.2452,-3.56445 -1.2452,-5.81054 0,-1.39942 0.2598,-2.9375 0.7813,-4.61426 0.5205,-1.67627 1.4316,-3.24707 2.7344,-4.71191 1.3017,-1.46485 3.0517,-2.69336 5.249,-3.68653 2.1973,-0.99267 4.9717,-1.48926 8.3252,-1.48926 0.9111,0 1.8799,0.0654 2.9053,0.19532 1.0253,0.13037 2.0752,0.36621 3.1494,0.70801 1.0742,0.34179 2.1484,0.78955 3.2226,1.34277 1.0742,0.55371 2.1319,1.2373 3.1739,2.05078 l -0.2442,-3.80859 h 4.1992 v 17.52929 h -3.125 c -0.1308,-1.72509 -0.4638,-3.43408 -1.0009,-5.12695 -0.5372,-1.69238 -1.3184,-3.21436 -2.3438,-4.56543 -1.0254,-1.35059 -2.3193,-2.44922 -3.8818,-3.2959 -1.5625,-0.84619 -3.418,-1.26953 -5.5664,-1.26953 -1.5625,0 -2.9463,0.20361 -4.1504,0.61035 -1.2051,0.40723 -2.2217,0.96045 -3.0518,1.66016 -0.8301,0.70019 -1.457,1.50586 -1.8799,2.41699 -0.4238,0.91162 -0.6347,1.87207 -0.6347,2.88086 0,1.62793 0.415,3.02734 1.2451,4.19922 0.8301,1.17187 1.9287,2.21387 3.2959,3.125 1.3672,0.91162 2.9297,1.7334 4.6875,2.46582 1.7578,0.73242 3.5478,1.48144 5.3711,2.24609 1.8222,0.76514 3.6133,1.5791 5.3711,2.44141 1.7578,0.86279 3.3203,1.87988 4.6875,3.05176 1.3672,1.17187 2.4658,2.53906 3.2959,4.10156 0.83,1.5625 1.2451,3.41797 1.2451,5.56641 0,2.50683 -0.5049,4.6875 -1.5137,6.54296 -1.0097,1.85547 -2.3359,3.38575 -3.9795,4.58985 -1.6445,1.20459 -3.5,2.09961 -5.5664,2.68555 -2.0674,0.58593 -4.1592,0.8789 -6.2744,0.8789 -3.3857,0 -6.3643,-0.44775 -8.9355,-1.34277 -2.5723,-0.89502 -4.6875,-1.91211 -6.3477,-3.05176 l 0.3418,3.4668 h -4.1992 l -0.586,-17.1875 h 3.0762 c 0.1299,2.07666 0.6104,3.98242 1.4404,5.71728 0.8301,1.73584 1.92,3.22803 3.2715,4.47705 1.3506,1.24903 2.8965,2.22266 4.6387,2.91992 1.7412,0.69727 3.5889,1.0459 5.542,1.0459 z"
       id="path79"
       inkscape:connector-curvature="0" /><path
       d="m 1693.3311,46.48438 -35.2051,0.58593 c -0.033,3.84912 0.2597,7.33887 0.8789,10.46973 0.6181,3.13135 1.5947,5.80518 2.9297,8.02295 1.334,2.21826 3.0517,3.93017 5.1513,5.13721 2.0996,1.20703 4.6143,1.80957 7.544,1.80957 1.5625,0 3.1572,-0.21289 4.7851,-0.63868 1.627,-0.42578 3.1983,-1.00634 4.712,-1.74316 1.5136,-0.7373 2.9052,-1.62061 4.1748,-2.65186 1.2695,-1.03173 2.3271,-2.13623 3.1738,-3.31591 l 2.4414,2.00195 c -1.3672,2.0835 -2.9541,3.84961 -4.7607,5.29785 -1.8067,1.44873 -3.6788,2.62891 -5.6153,3.54004 -1.9375,0.91162 -3.8818,1.57031 -5.8349,1.97754 -1.9532,0.40674 -3.7764,0.61035 -5.4688,0.61035 -3.4512,0 -6.665,-0.61865 -9.6435,-1.85547 -2.9786,-1.23681 -5.5586,-3.01074 -7.7393,-5.32226 -2.1816,-2.31104 -3.8984,-5.09424 -5.1514,-8.34961 -1.2539,-3.25489 -1.8799,-6.91699 -1.8799,-10.98633 0,-3.51563 0.6016,-6.87647 1.8067,-10.08301 1.2041,-3.20605 2.9131,-6.04639 5.1269,-8.52051 2.2129,-2.47363 4.8662,-4.44336 7.959,-5.9082 3.0918,-1.46484 6.5264,-2.19727 10.3028,-2.19727 2.7666,0 5.3789,0.45606 7.8369,1.36719 2.457,0.91162 4.6142,2.27881 6.4697,4.10156 1.8555,1.82325 3.3203,4.12598 4.3945,6.90918 1.0742,2.78321 1.6114,6.03028 1.6114,9.74122 z m -20.2149,-18.16407 c -3.9062,0 -7.1289,1.14356 -9.668,3.43116 -2.539,2.2871 -4.2158,5.99414 -5.0293,11.11962 h 25.4883 c 0,-1.75195 -0.1953,-3.49511 -0.5859,-5.23144 -0.3906,-1.73584 -1.0176,-3.29297 -1.8799,-4.67139 -0.8633,-1.3789 -1.9775,-2.49804 -3.3447,-3.35791 -1.3672,-0.85986 -3.0274,-1.29004 -4.9805,-1.29004 z"
       id="path81"
       inkscape:connector-curvature="0" /><path
       d="m 1708.2236,37.98828 c 0,-1.0415 0.016,-2.09961 0.049,-3.17383 0.032,-1.07422 0.1464,-2.18066 0.3418,-3.32031 l -7.0801,0.39063 v -4.19922 c 2.1806,0 3.9551,-0.0732 5.3222,-0.21973 1.3672,-0.14648 2.4659,-0.34961 3.2959,-0.61035 0.8301,-0.26025 1.4727,-0.54492 1.9288,-0.85449 0.455,-0.30909 0.8789,-0.64258 1.2695,-1.00098 h 2.8808 c 0.065,0.74902 0.1377,1.60352 0.2198,2.56348 0.081,0.96045 0.1543,2.12402 0.2197,3.49121 1.0742,-0.94385 2.2539,-1.82276 3.54,-2.63672 1.2852,-0.81348 2.628,-1.52149 4.0284,-2.12402 1.3994,-0.60206 2.8398,-1.07422 4.3212,-1.41602 1.4805,-0.3418 2.9375,-0.5127 4.3702,-0.5127 5.7939,0 10.0254,1.81495 12.6953,5.44434 2.6689,3.62988 4.0039,9.26953 4.0039,16.91895 v 18.65234 c 0,1.33496 -0.017,2.51465 -0.049,3.54004 -0.033,1.02539 -0.1465,2.10791 -0.3418,3.24707 l 6.2988,-0.29297 v 4.10156 h -20.4102 v -2.97851 c 1.5293,0 2.6934,-0.30078 3.4912,-0.90332 0.7969,-0.60205 1.375,-1.44043 1.7334,-2.51465 0.3575,-1.07422 0.5616,-2.35986 0.6104,-3.85742 0.049,-1.49707 0.073,-3.14112 0.073,-4.93164 V 46.82617 c -0.065,-5.76172 -1.0097,-10.09912 -2.832,-13.01269 -1.8232,-2.91309 -4.7207,-4.37012 -8.6914,-4.37012 -1.2051,0 -2.4092,0.1792 -3.6133,0.53711 -1.2051,0.3584 -2.3603,0.82226 -3.4668,1.3916 -1.1074,0.56982 -2.1484,1.24512 -3.125,2.02637 -0.9765,0.78125 -1.8232,1.62793 -2.539,2.53906 0.032,0.58594 0.049,1.21289 0.049,1.87988 0,0.66748 0,1.34278 0,2.02637 l -0.098,25.53711 c 0,1.33496 -0.017,2.51465 -0.049,3.54004 -0.033,1.02539 -0.1465,2.10791 -0.3418,3.24707 l 6.2988,-0.29297 v 4.10156 h -20.4101 v -2.97851 c 1.5293,0 2.6933,-0.30078 3.4912,-0.90332 0.7969,-0.60205 1.3672,-1.44043 1.709,-2.51465 0.3418,-1.07422 0.5371,-2.35986 0.5859,-3.85742 0.049,-1.49707 0.089,-3.14112 0.1221,-4.93164 l 0.098,-22.80274 z"
       id="path83"
       inkscape:connector-curvature="0" /><path
       d="m 1781.6611,73.63281 c 1.2696,0 2.5469,-0.15429 3.833,-0.4624 1.2852,-0.3081 2.4571,-0.78711 3.5157,-1.43652 1.0576,-0.64942 1.9199,-1.46924 2.5879,-2.45996 0.6669,-0.99024 1.0009,-2.16651 1.0009,-3.52979 0,-1.59082 -0.415,-2.94678 -1.2451,-4.06641 -0.8301,-1.12011 -1.9209,-2.10986 -3.2715,-2.97021 -1.3515,-0.86084 -2.8974,-1.63135 -4.6386,-2.31348 -1.7422,-0.68213 -3.5157,-1.38086 -5.3223,-2.09716 -1.8066,-0.71582 -3.5732,-1.50538 -5.2979,-2.36817 -1.7255,-0.8623 -3.2636,-1.87988 -4.6142,-3.05176 -1.3516,-1.17187 -2.4414,-2.57129 -3.2715,-4.19922 -0.8301,-1.62744 -1.2451,-3.56445 -1.2451,-5.81054 0,-1.39942 0.2597,-2.9375 0.7812,-4.61426 0.5205,-1.67627 1.4317,-3.24707 2.7344,-4.71191 1.3018,-1.46485 3.0518,-2.69336 5.249,-3.68653 2.1973,-0.99267 4.9717,-1.48926 8.3252,-1.48926 0.9112,0 1.8799,0.0654 2.9053,0.19532 1.0254,0.13037 2.0752,0.36621 3.1494,0.70801 1.0742,0.34179 2.1485,0.78955 3.2227,1.34277 1.0742,0.55371 2.1318,1.2373 3.1738,2.05078 l -0.2441,-3.80859 h 4.1992 v 17.52929 h -3.125 c -0.1309,-1.72509 -0.4639,-3.43408 -1.001,-5.12695 -0.5371,-1.69238 -1.3184,-3.21436 -2.3438,-4.56543 -1.0253,-1.35059 -2.3193,-2.44922 -3.8818,-3.2959 -1.5625,-0.84619 -3.418,-1.26953 -5.5664,-1.26953 -1.5625,0 -2.9463,0.20361 -4.1504,0.61035 -1.2051,0.40723 -2.2217,0.96045 -3.0517,1.66016 -0.8301,0.70019 -1.4571,1.50586 -1.8799,2.41699 -0.4239,0.91162 -0.6348,1.87207 -0.6348,2.88086 0,1.62793 0.415,3.02734 1.2451,4.19922 0.8301,1.17187 1.9287,2.21387 3.2959,3.125 1.3672,0.91162 2.9297,1.7334 4.6875,2.46582 1.7578,0.73242 3.5479,1.48144 5.3711,2.24609 1.8223,0.76514 3.6133,1.5791 5.3711,2.44141 1.7578,0.86279 3.3203,1.87988 4.6875,3.05176 1.3672,1.17187 2.4658,2.53906 3.2959,4.10156 0.8301,1.5625 1.2451,3.41797 1.2451,5.56641 0,2.50683 -0.5049,4.6875 -1.5136,6.54296 -1.0098,1.85547 -2.336,3.38575 -3.9795,4.58985 -1.6446,1.20459 -3.5,2.09961 -5.5664,2.68555 -2.0674,0.58593 -4.1592,0.8789 -6.2745,0.8789 -3.3857,0 -6.3642,-0.44775 -8.9355,-1.34277 -2.5723,-0.89502 -4.6875,-1.91211 -6.3477,-3.05176 l 0.3418,3.4668 h -4.1992 l -0.5859,-17.1875 h 3.0762 c 0.1298,2.07666 0.6103,3.98242 1.4404,5.71728 0.8301,1.73584 1.9199,3.22803 3.2715,4.47705 1.3506,1.24903 2.8965,2.22266 4.6386,2.91992 1.7413,0.69727 3.5889,1.0459 5.542,1.0459 z"
       id="path85"
       inkscape:connector-curvature="0" /><path
       d="m 1845.7236,33.44727 c -0.456,-1.17188 -1.123,-2.10743 -2.0019,-2.80762 -0.8789,-0.69971 -1.8311,-1.24512 -2.8565,-1.63574 -1.0254,-0.39063 -2.0507,-0.64258 -3.0761,-0.75684 -1.0254,-0.11377 -1.8799,-0.1709 -2.5635,-0.1709 -2.2793,0 -4.4033,0.46387 -6.3721,1.3916 -1.9697,0.92774 -3.6709,2.28711 -5.1025,4.07715 -1.4326,1.79053 -2.5635,4.02051 -3.3936,6.68946 -0.8301,2.66943 -1.2451,5.72949 -1.2451,9.17968 0,3.32032 0.415,6.38867 1.2451,9.2041 0.8301,2.81592 1.9932,5.24122 3.4912,7.2754 1.4971,2.03466 3.3037,3.62158 5.42,4.76074 2.1152,1.13965 4.4589,1.70898 7.0312,1.70898 1.5625,0 3.1084,-0.21972 4.6387,-0.65918 1.5293,-0.43945 2.9785,-1.0498 4.3457,-1.83105 1.3672,-0.78125 2.6279,-1.69239 3.7842,-2.73438 1.1552,-1.0415 2.1396,-2.16455 2.9541,-3.36914 l 2.5879,2.00195 c -1.335,2.0835 -2.8565,3.86573 -4.5655,5.34668 -1.709,1.48145 -3.5,2.70215 -5.3711,3.66211 -1.872,0.96045 -3.7597,1.66797 -5.664,2.12403 -1.9043,0.45556 -3.7032,0.68359 -5.3955,0.68359 -3.3858,0 -6.5762,-0.57812 -9.5704,-1.7334 -2.9951,-1.15527 -5.6152,-2.83203 -7.8613,-5.02929 -2.2461,-2.19727 -4.0205,-4.89063 -5.3222,-8.08106 -1.3028,-3.18994 -1.9532,-6.81933 -1.9532,-10.88867 0,-2.31104 0.2842,-4.58984 0.8545,-6.83594 0.5694,-2.24609 1.3916,-4.38623 2.4658,-6.4209 1.0743,-2.03418 2.376,-3.92236 3.9063,-5.66406 1.5293,-1.74121 3.2627,-3.24707 5.2002,-4.5166 1.9365,-1.26953 4.0527,-2.26221 6.3476,-2.97852 2.295,-0.71582 4.7276,-1.07422 7.2998,-1.07422 2.7666,0 5.2891,0.3418 7.5684,1.0254 2.2783,0.68359 4.2314,1.59521 5.8594,2.73437 1.6269,1.13965 2.8808,2.44971 3.7597,3.93066 0.879,1.48145 1.3184,3.03565 1.3184,4.66309 0,1.43262 -0.3994,2.66113 -1.1963,3.68652 -0.7978,1.02539 -1.9453,1.55469 -3.4424,1.58692 -0.8789,0.0327 -1.6113,-0.10547 -2.1972,-0.41504 -0.586,-0.30908 -1.0586,-0.69141 -1.416,-1.14746 -0.3584,-0.45557 -0.6192,-0.95215 -0.7813,-1.48926 -0.1631,-0.53711 -0.2441,-1.01709 -0.2441,-1.44043 0,-0.65088 0.1054,-1.33447 0.3173,-2.05078 0.211,-0.71582 0.6104,-1.3833 1.1963,-2.00195 z"
       id="path87"
       inkscape:connector-curvature="0" /><path
       d="m 1867.4033,13.47656 c 0,-1.0415 0.01,-2.05078 0.024,-3.02734 0.016,-0.97656 0.1055,-2.13184 0.2686,-3.4668 l -7.0801,0.39063 V 3.17383 c 2.1807,0 3.9951,-0.0732 5.4443,-0.21973 1.4483,-0.14648 2.628,-0.34961 3.5401,-0.61035 0.9111,-0.26025 1.6269,-0.54492 2.1484,-0.85449 0.5205,-0.30908 0.9766,-0.64258 1.3672,-1.00098 h 2.8809 v 30.46875 c 1.1064,-0.91113 2.3105,-1.77392 3.6133,-2.58789 1.3017,-0.81348 2.6611,-1.51367 4.0771,-2.09961 1.416,-0.58594 2.8643,-1.0498 4.3457,-1.3916 1.4805,-0.3418 2.9375,-0.5127 4.3701,-0.5127 2.8965,0 5.3867,0.44776 7.4707,1.34278 2.083,0.89551 3.7842,2.26269 5.1026,4.10156 1.3183,1.83936 2.2949,4.16699 2.9297,6.98242 0.6347,2.81592 0.9677,6.12793 1.0009,9.93653 l 0.098,18.65234 c 0,1.33496 -0.017,2.51465 -0.049,3.54004 -0.033,1.02539 -0.1465,2.10791 -0.3418,3.24707 l 6.2988,-0.29297 v 4.10156 h -20.4102 v -2.97851 c 1.5293,0 2.6934,-0.30078 3.4912,-0.90332 0.7969,-0.60205 1.375,-1.44043 1.7334,-2.51465 0.3575,-1.07422 0.5616,-2.35986 0.6104,-3.85742 0.049,-1.49707 0.073,-3.14112 0.073,-4.93164 V 46.82617 c 0,-5.76172 -0.9121,-10.0664 -2.7343,-12.91504 -1.8233,-2.84814 -4.7207,-4.27246 -8.6914,-4.27246 -1.1397,0 -2.3438,0.16309 -3.6133,0.48828 -1.2696,0.32569 -2.4658,0.76514 -3.5889,1.31836 -1.123,0.55371 -2.1816,1.20459 -3.1738,1.95313 -0.9932,0.74902 -1.8643,1.5625 -2.6123,2.4414 v 29.54102 c 0,1.33496 -0.033,2.51465 -0.098,3.54004 -0.065,1.02539 -0.1953,2.10791 -0.3906,3.24707 l 6.2988,-0.29297 v 4.10156 h -20.4101 v -2.97851 c 1.5293,0 2.7011,-0.30078 3.5156,-0.90332 0.8135,-0.60205 1.4072,-1.44043 1.7822,-2.51465 0.374,-1.07422 0.5859,-2.35986 0.6348,-3.85742 0.049,-1.49707 0.073,-3.14112 0.073,-4.93164 V 13.47656 z"
       id="path89"
       inkscape:connector-curvature="0" /><path
       d="m 1924.3857,36.37695 c 0,-1.66015 0.4883,-3.22265 1.4649,-4.6875 0.9765,-1.46484 2.3437,-2.74218 4.1015,-3.833 1.7579,-1.09034 3.8487,-1.94483 6.2745,-2.56348 2.4248,-0.61816 5.0693,-0.92774 7.9345,-0.92774 5.5987,0 9.7246,1.48145 12.378,4.44336 2.6523,2.96241 3.9629,7.66602 3.9306,14.11133 l -0.098,22.46094 c 0,1.04199 -0.024,2.0918 -0.073,3.14941 -0.049,1.05811 -0.1552,2.27051 -0.3174,3.6377 l 7.0801,-0.39063 v 4.19922 h -14.3066 c -0.1953,-1.13916 -0.3418,-2.13183 -0.4395,-2.97851 -0.098,-0.84619 -0.1797,-1.74121 -0.2441,-2.68555 -2.2461,2.24609 -4.6963,4.02051 -7.3486,5.32227 -2.6534,1.30175 -5.461,1.95312 -8.4229,1.95312 -2.5068,0 -4.6963,-0.30127 -6.5674,-0.90332 -1.872,-0.60254 -3.4267,-1.44043 -4.6631,-2.51465 -1.2373,-1.07422 -2.165,-2.33545 -2.7832,-3.78418 -0.6191,-1.44824 -0.9277,-3.00293 -0.9277,-4.66308 0,-2.05078 0.4473,-3.92237 1.3428,-5.61524 0.8945,-1.69238 2.0996,-3.19824 3.6133,-4.5166 1.5136,-1.31836 3.2793,-2.45752 5.2978,-3.41797 2.0176,-0.95996 4.1582,-1.74951 6.4209,-2.36816 2.2617,-0.61817 4.5732,-1.06592 6.9336,-1.34278 2.3594,-0.27636 4.6631,-0.39843 6.9092,-0.36621 v -6.25 c 0,-1.72509 -0.098,-3.40136 -0.293,-5.02929 -0.1953,-1.62744 -0.6269,-3.1084 -1.2939,-4.44336 -0.668,-1.33448 -1.709,-2.39258 -3.125,-3.17383 -1.4161,-0.78125 -3.0518,-1.17188 -4.9073,-1.17188 -1.0742,0 -2.0996,0.0898 -3.0761,0.26856 -0.9766,0.1792 -1.9375,0.48047 -2.8809,0.90332 -0.9443,0.42334 -1.7988,0.97656 -2.5635,1.66016 -0.7656,0.68359 -1.3916,1.49755 -1.8799,2.4414 0.4883,0.55371 0.8213,1.16406 1.001,1.83106 0.1787,0.66748 0.2686,1.31054 0.2686,1.92871 0,0.39062 -0.082,0.83838 -0.2442,1.34277 -0.163,0.50488 -0.415,0.97656 -0.7568,1.41602 -0.3418,0.43945 -0.7812,0.79785 -1.3184,1.07422 -0.5371,0.27685 -1.2617,0.41503 -2.1728,0.41503 -1.3027,0 -2.3359,-0.47998 -3.1006,-1.44043 -0.7656,-0.95996 -1.1475,-2.12402 -1.1475,-3.49121 z m 27.4414,15.13672 c -1.5302,0.0654 -3.1171,0.20362 -4.7607,0.41504 -1.6445,0.21192 -3.2559,0.53711 -4.834,0.97656 -1.5791,0.43946 -3.0683,1.00098 -4.4678,1.68457 -1.4003,0.6836 -2.621,1.49756 -3.6621,2.44141 -1.042,0.94434 -1.8554,2.03467 -2.4414,3.27148 -0.5859,1.23731 -0.8466,2.63672 -0.7812,4.19922 0.032,1.23731 0.2685,2.31934 0.708,3.24707 0.4394,0.92774 1.0088,1.69288 1.709,2.29493 0.6992,0.60254 1.5049,1.0581 2.417,1.36718 0.9111,0.30957 1.8877,0.46387 2.9297,0.46387 1.3339,0 2.5878,-0.12988 3.7597,-0.39062 1.1719,-0.26026 2.2862,-0.64258 3.3447,-1.14747 1.0577,-0.50439 2.0831,-1.11474 3.0762,-1.83105 0.9922,-0.71582 1.9932,-1.5459 3.0029,-2.49023 V 51.51367 z"
       id="path91"
       inkscape:connector-curvature="0" /><path
       d="m 2001.0459,5.32227 c -0.4883,-0.65088 -1.1475,-1.10645 -1.9775,-1.36719 -0.8301,-0.26026 -1.6036,-0.39063 -2.3194,-0.39063 -1.5625,0 -2.8486,0.3501 -3.8574,1.04981 -1.0098,0.70019 -1.8066,1.61963 -2.3926,2.75879 -0.5859,1.13965 -1.001,2.41699 -1.2451,3.83301 -0.2441,1.41601 -0.3662,2.84033 -0.3662,4.27246 v 10.49804 h 13.4766 v 3.90625 l -13.4766,0.24414 0.098,35.25391 c 0,1.33496 -0.017,2.51465 -0.049,3.54004 -0.033,1.02539 -0.1631,2.10791 -0.3906,3.24707 l 6.2988,-0.29297 v 4.10156 h -20.3613 v -2.97851 c 1.5293,0 2.6934,-0.30078 3.4912,-0.90332 0.7969,-0.60205 1.375,-1.44043 1.7334,-2.51465 0.3574,-1.07422 0.5527,-2.35986 0.5859,-3.85742 0.032,-1.49707 0.049,-3.14112 0.049,-4.93164 l -0.098,-30.46875 -8.2031,0.14648 v -4.49219 h 8.2031 v -2.09961 c 0,-3.71093 0.3174,-7.03906 0.9522,-9.98535 0.6347,-2.9458 1.6679,-5.44433 3.1006,-7.49512 1.4316,-2.05078 3.2958,-3.62939 5.5908,-4.73632 C 1992.1836,0.55371 1994.9746,0 1998.2627,0 c 1.0742,0 2.2373,0.13867 3.4912,0.41504 1.2529,0.27686 2.4082,0.71631 3.4668,1.31836 1.0576,0.60254 1.9443,1.36719 2.6611,2.29492 0.7159,0.92774 1.0743,2.04297 1.0743,3.34473 0,1.33496 -0.3907,2.42529 -1.1719,3.27148 -0.7813,0.84668 -1.7744,1.26953 -2.9785,1.26953 -0.8467,0 -1.5303,-0.13818 -2.0508,-0.41504 -0.5215,-0.27636 -0.9522,-0.62646 -1.294,-1.0498 -0.3418,-0.42285 -0.5859,-0.87891 -0.7324,-1.36719 -0.1465,-0.48828 -0.2197,-0.92773 -0.2197,-1.31836 0,-0.39062 0.04,-0.78906 0.1221,-1.19629 0.081,-0.40674 0.2197,-0.82177 0.415,-1.24511 z"
       id="path93"
       inkscape:connector-curvature="0" /><path
       d="m 2006.6611,25.97656 c 1.7578,-0.0322 3.3526,-0.51269 4.7852,-1.44043 1.4316,-0.92773 2.6933,-2.083 3.7842,-3.46679 1.0898,-1.3833 2.0097,-2.88868 2.7588,-4.51661 0.748,-1.62744 1.3339,-3.15722 1.7578,-4.58984 h 3.4179 c 0,2.66943 -0.01,5.15967 -0.024,7.4707 -0.017,2.31153 -0.024,4.49219 -0.024,6.54297 h 16.8457 v 3.90625 l -16.8457,0.19532 c -0.033,4.32959 -0.049,8.02441 -0.049,11.08398 0,3.06006 -0.01,5.61523 -0.024,7.66602 -0.017,2.05078 -0.024,3.67041 -0.024,4.85839 0,1.18848 -0.01,2.0918 -0.025,2.70996 -0.017,0.61866 -0.024,1.01758 -0.024,1.19629 0,0.1792 0,0.28516 0,0.31739 0,2.27881 0.1221,4.28906 0.3662,6.03027 0.2442,1.7417 0.6592,3.20654 1.2452,4.39453 0.5859,1.18848 1.3584,2.0835 2.3193,2.68555 0.96,0.60254 2.1728,0.90332 3.6377,0.90332 1.7246,0 3.4336,-0.52051 5.1269,-1.5625 1.6924,-1.04151 3.1895,-2.52246 4.4922,-4.44336 l 2.6856,2.19726 c -1.4649,2.21387 -2.9219,3.94727 -4.3701,5.2002 -1.4493,1.25342 -2.8243,2.19727 -4.126,2.83203 -1.3028,0.63477 -2.5147,1.0332 -3.6377,1.19629 -1.1231,0.1626 -2.1084,0.24414 -2.9541,0.24414 -1.0098,0 -2.043,-0.0815 -3.1006,-0.24414 -1.0586,-0.16309 -2.0996,-0.48047 -3.125,-0.95215 -1.0254,-0.47168 -1.9863,-1.13916 -2.8809,-2.00195 -0.8955,-0.86231 -1.6845,-1.97754 -2.3681,-3.34473 -0.6836,-1.36719 -1.2207,-3.02734 -1.6114,-4.98047 -0.3906,-1.95312 -0.5703,-4.26416 -0.5371,-6.93359 l 0.1953,-28.90625 -7.666,0.0488 v -4.29688 z"
       id="path95"
       inkscape:connector-curvature="0" /></g></g><g
   id="g97"
   transform="translate(0,-499.52246)">
	</g>
<g
   id="Ebene_2"
   transform="translate(0,-499.52246)">
</g>
</svg>